SplineFontDB: 3.0
FontName: CoelacanthMinikin
FullName: Coelacanth Minikin
FamilyName: Coelacanth
Weight: Regular

StartChar: a
Encoding: 97 97 0
Width: 542
VWidth: 1159
Flags: W
HStem: -17.4434 77.3398<175.974 287.346 391.549 477.563> 243 57.9971<199.542 336.999> 427.209 82.1836<204.297 306.405>
VStem: 73 89.4482<69.8662 211.215> 86 101.616<363.344 416.453> 337.621 86.1045<96.2083 243 299.645 387.099>
LayerCount: 2
Fore
SplineSet
337 242 m 1xf4
 337 243 335 243 333 243 c 1
 279.756615649 241.723552585 222.640059399 234.186288359 209.465820312 227.439453125 c 0
 165.618571341 204.98425383 162.448242188 189.318727693 162.448242188 135.328125 c 3
 162.448242188 88.9490117593 179.765564284 59.896484375 210.03515625 59.896484375 c 3
 235.403062342 59.896484375 291.104849729 77.681640625 334.568359375 108.150390625 c 1
 334.428710938 127.866210938 335.631835938 147.751953125 335.631835938 171.438476562 c 1
 335.631835938 195.692263744 337.705262814 226.56354313 337 242 c 1xf4
291.125976562 509.392578125 m 3
 321.96484375 509.392578125 395.366958778 456.845962602 411.724609375 430.782226562 c 0
 425.180664061 409.341796875 423.725585938 383.138671875 423.725585938 366.463867188 c 1
 423.725585938 292.618164062 418.491210938 187.801757812 418.491210938 118.719726562 c 1
 418.491210938 99.6640625003 417.015858796 88.3771778234 422.326171875 69.88671875 c 0
 422.893977002 67.9096267582 427.453060749 65.25390625 427.977539062 65.25390625 c 3
 438.685428537 65.25390625 491.645507812 84.650390625 491.645507812 84.650390625 c 1
 519.491210938 22.345703125 l 1
 498 14 426.400562032 -21.3994140625 402.8984375 -21.3994140625 c 3
 380.19921875 -21.3994140625 354.318359375 -0.59765625 343.750976562 31.5361328125 c 1
 289.406637164 -1.7744140625 243.520913151 -17.443359375 187.073242188 -17.443359375 c 3
 85.4682373867 -17.443359375 73 51.0763094529 73 108.41015625 c 1xf4
 73 144.196230938 74.2451171875 201.131482279 85.44921875 227.158203125 c 1
 91.09765625 243.419921875 103.255859375 255.236328125 114.44921875 260.603515625 c 1
 194.716091214 286.6015625 246.593599166 295.526367188 337.615234375 300.997070312 c 1
 337.616563958 315.895999668 337.62109375 341.748043209 337.62109375 341.842773438 c 1
 337.62109375 369.095543635 332.192998533 378.575770932 326.918945312 387.518554688 c 1
 323.528268258 390.588810595 287.541111932 427.208984375 264.040039062 427.208984375 c 3
 209.79171188 427.208984375 187.616210938 402.482421875 187.616210938 401.23046875 c 3
 187.616210938 391.221679688 194.299804688 368.401367188 194.295898438 368.401367188 c 1
 97.1884765625 333.813476562 l 5
 97.1884765625 333.813476562 86 359.288085938 86 380.314453125 c 3xec
 86 404.776367188 97.215606268 429.284916225 122.46484375 449.041992188 c 0
 141.769399164 464.147460938 242.467889906 509.392578125 291.125976562 509.392578125 c 3
EndSplineSet
Validated: 524321
EndChar

StartChar: b
Encoding: 98 98 1
Width: 581
VWidth: 1159
Flags: W
HStem: -11.3965 78.0488<220.22 381.169> 413.788 75.4727<236.382 377.862> 621.388 60.8164<35.6066 99.5069>
VStem: 100.975 82.0527<96.8251 382.809 442.294 620.089> 462.44 85.5596<160.977 320.651>
LayerCount: 2
Fore
SplineSet
183.02734375 371.725585938 m 5
 184.19297085 285.237304687 182.299804688 202.489257812 182.299804688 116 c 1
 182.374501116 113.190429688 181.354438558 111.618164062 181.770507812 111 c 1
 213.713668669 84.0234815914 272.34627651 66.65234375 316.810546875 66.65234375 c 3
 397.085320408 66.65234375 462.440429688 138.316616027 462.440429688 245.9140625 c 3
 462.440429688 315.286759438 394.009021175 413.788085938 312.599609375 413.788085938 c 7
 259.109064378 413.788085938 206.0947246 384.426757812 183.02734375 371.725585938 c 5
23.5751953125 682.204101562 m 1
 76.0966796875 684.204101562 118.46875 711.588867188 170.990234375 753.588867188 c 1
 216.834960938 717.588867188 l 1
 203.394854506 692.588867188 195.924718546 660.907677129 194.044921875 645 c 0
 187.843003337 594.747763947 184.078030336 525.776820092 183.08203125 442.293945312 c 5
 221.479492709 462.748046875 274.023913084 489.260742188 332.900390625 489.260742188 c 7
 428.000357448 489.260742188 548 368.544154251 548 270.260742188 c 3
 548 116.615247202 429.517578125 -11.396484375 280.907226562 -11.396484375 c 3
 197.914226355 -11.396484375 167.341413137 20.1318359375 158.498046875 20.1318359375 c 1
 149.805664062 20.1318359375 141 5 123.854492188 -17.0859375 c 1
 68.0732421875 10.0029296875 l 1
 68.0732421875 10.0029296875 81.9716796875 42.71875 85.5791015625 50.0029296875 c 1
 89.3046875 66.0029296875 96.5095576031 79.9869127093 96.927734375 149.002929688 c 0
 97.7275390625 281.002929688 100.980844406 363.203601811 100.974609375 495.204101562 c 0
 100.971775788 555.193359375 102.408553778 592.126457286 101.100585938 608.204101562 c 0
 100.114257812 620.328125 101.250976561 621.986328125 88.263671875 621.387695312 c 1
 78.3342564383 621.387695312 36.412109375 618.204101562 36.412109375 618.204101562 c 1
 23.5751953125 682.204101562 l 1
EndSplineSet
Validated: 33
EndChar

StartChar: c
Encoding: 99 99 2
Width: 523
VWidth: 1159
Flags: W
HStem: -19.5674 84.793<226.748 383.396> 414.488 87.2578<213.928 354.821>
VStem: 55.3965 88.9316<153.242 333.476>
LayerCount: 2
Fore
SplineSet
406.387695312 362.665039062 m 5
 394.049804688 373.881835938 325.119140625 414.48828125 277.3046875 414.48828125 c 7
 197.303947752 414.48828125 144.328125 342.994140625 144.328125 240.341796875 c 3
 144.328125 146.568359375 212.669239345 65.2255859375 305.381835938 65.2255859375 c 7
 353.231445312 65.2255859375 382.509765625 83.3535156252 425.655273438 116.196289062 c 5
 470.002929688 46.4267578125 l 5
 419.2265625 13.4267578125 363.817382812 -19.5673828125 294.63671875 -19.5673828125 c 7
 233.176895613 -19.5673828125 55.396484375 32.4365234375 55.396484375 225.23046875 c 3
 55.396484375 379.296875 173.374681169 501.74609375 313.313476562 501.74609375 c 7
 381.725585938 501.74609375 449.01171875 469.463867188 471 448.74609375 c 5
 456.623046875 388.259765625 466.780273438 392.615234375 406.387695312 362.665039062 c 5
EndSplineSet
Validated: 1
EndChar

StartChar: d
Encoding: 100 100 3
Width: 608
VWidth: 1159
Flags: W
HStem: -27 21G<442.23 461.972> -11 78.4375<208.987 352.003> 408.102 80.1768<193.888 396.035> 620.012 63<337.495 392.023>
VStem: 43 86.3281<156.765 330.717> 404.777 83.7402<97.7094 385.766>
LayerCount: 2
Fore
SplineSet
402.09765625 37.607421875 m 1xbc
 359.231445312 11.59375 313.615234375 -11 256.564453125 -11 c 3x7c
 129.193111724 -11 43 99.5836752535 43 224.501953125 c 3
 43 311.632722109 90.014110687 407.47538334 154.616210938 447.0078125 c 0
 208.291395209 478.820330011 256.405112341 488.278320312 318.080078125 488.278320312 c 3
 341.299804688 488.278320312 377.572265625 479.676757812 403.592773438 474.185546875 c 1
 404.863281248 530.161505971 407.220019979 589.017174944 401.118164062 627.83984375 c 1
 399.881835938 629.7421875 l 1
 390 629 355.646484375 622.40234375 339.34765625 620.01171875 c 1
 322.674804688 683.01171875 l 1
 377.132635557 695.59630951 429.617293777 715.820139299 469.776367188 756.396484375 c 1
 520.458007812 719.396484375 l 1
 515.44140625 704.396484375 505.367297305 675.390033201 503.744140625 660.396484375 c 0
 488.046875 515.396484375 488.517578125 349.396484375 488.517578125 190.396484375 c 3
 488.517578125 149.846397681 488.66796875 102.527472132 490.681640625 68.1201171875 c 1
 493.09375 68.1201171875 492.309423141 60.536880647 498.776367188 62.1201171875 c 0
 523.284179688 68.1201171875 540.790039062 76.396484375 564.130859375 81.396484375 c 1
 587.471679688 20.396484375 l 1
 541.1328125 3.296875 474.666015625 -27 449.278320312 -27 c 1
 435.181640625 -27 412 -18 406.693359375 8 c 0
 404.931231037 16.6335857336 403.09765625 28.1399404023 402.09765625 37.607421875 c 1xbc
247.6796875 408.1015625 m 3
 227.963831999 408.1015625 202.353110459 397.241285231 181.473632812 382.67578125 c 0
 159.25901983 363.299628129 129.328125 309.461991101 129.328125 261.801757812 c 3
 129.328125 154.698075866 185.229498957 67.4375 282.408203125 67.4375 c 3
 328.193359375 67.4375 371.272460938 87.578125 402.73046875 109.931640625 c 1
 405.139648438 185.748919002 403.7421875 295.684513913 404.77734375 370.504882812 c 1
 404.77734375 382.034294578 399.354165686 388.880417003 368.373046875 394.504882812 c 0
 332.106310887 401.634443996 275.094055583 408.1015625 247.6796875 408.1015625 c 3
EndSplineSet
Validated: 524321
EndChar

StartChar: e
Encoding: 101 101 4
Width: 574
VWidth: 1159
Flags: W
HStem: -19.0283 81.6641<247.823 389.182> 429.789 74.8838<230.612 345.827>
VStem: 72.2666 107.733<135.356 200.498 258.922 345.9>
LayerCount: 2
Fore
SplineSet
295.154296875 504.672851562 m 3
 383.985823263 504.672851562 474.169727024 427.745187527 501.801757812 303.90625 c 1
 505.26953125 288.001953125 512.900390625 285.350585938 524 284.025390625 c 1
 524 226 l 1
 412.013126435 218.668821332 281.190100268 207.704840353 180 198.806640625 c 1
 180 193.826128873 180 187.980511752 182 183 c 1
 189.525420252 142.000065849 234.641038521 62.6357421875 315.173828125 62.6357421875 c 3
 367.901414332 62.6357421875 410.724972714 95.9394531253 444.401367188 127.000976562 c 1
 488.870117188 68.0654296875 l 1
 439.738812885 28.0107421875 380.404211605 -19.0283203125 290.141601562 -19.0283203125 c 3
 132.012974594 -19.0283203125 72.2666015625 127.143554688 72.2666015625 225.1640625 c 3
 72.2666015625 407.83203125 192.816449233 504.672851562 295.154296875 504.672851562 c 3
277.596679688 429.7890625 m 3
 238.388963786 429.7890625 180.598363483 386.5001527 177.712890625 258.921875 c 1
 401 279 l 1
 403.996093751 279.514648437 404.241210938 281.669921874 404.556640625 284.669921875 c 1
 400.454370741 379.545282313 346.145712759 429.7890625 277.596679688 429.7890625 c 3
EndSplineSet
Validated: 1
EndChar

StartChar: f
Encoding: 102 102 5
Width: 465
VWidth: 1159
Flags: W
HStem: -13.9082 19.9082G<70.2688 87.3984 326.652 349.801> -6 64<72.504 154.338 250.774 346.149> 347.604 71.793<75.6133 162.596 251.09 408.867> 672.678 81.1387<328.753 459.327>
VStem: 164.308 84.4482<62.4265 351.512 415.396 575.303>
LayerCount: 2
Fore
SplineSet
415.055664062 753.81640625 m 3x78
 460.657226562 753.81640625 514.990234375 737.580078125 554.305664062 699.580078125 c 1
 560.381835938 671.379882812 525.139648438 634.66015625 504.490234375 623.379882812 c 1
 462.228515625 653.04296875 418.985351562 672.677734375 384.80859375 672.677734375 c 3
 295.751953125 672.677734375 267.237547979 616.820819373 254.591796875 476 c 0
 253.9375 468.713867188 252.2578125 447.651367188 251.08984375 414.396484375 c 1
 305.94140625 415.396484375 355.181640625 417.396484375 408.8671875 419.396484375 c 1
 408.8671875 347.603515625 l 1
 355.181640625 349.603515625 303.607421875 351.51171875 249.922851562 353.51171875 c 1
 249.922851562 332.678710938 248.755859375 293.833007812 248.755859375 284 c 0
 248.755859375 208.53061207 248.294015846 99.2684212815 250.76953125 60.5400390625 c 0
 250.819883574 59.7522984383 253.346245919 60.0343899817 254.81640625 60 c 0
 286.3359375 59.2626953125 322.505859375 58 354.014648438 57 c 1
 348.1796875 -15 l 1
 305.125 -10 244.912109375 -6 195.250976562 -6 c 0x78
 159.161132812 -6 103.8515625 -10.6357421875 70.9453125 -13.908203125 c 1xb8
 68.611328125 55.091796875 l 1
 88.451171875 55.835924811 111.346981089 57.4522592926 129.296875 58 c 0
 146.143989879 58.514089424 154.180284323 58.122650985 154.3515625 59.7861328125 c 0
 160.1171875 115.782831014 164.303200037 193.150794994 164.307617188 260 c 0
 164.30859375 274.779296875 163.141601562 324.733398438 163.141601562 351.51171875 c 1
 136.299804688 350.057617188 105.95703125 348.603515625 75.61328125 347.603515625 c 1
 75.61328125 419.396484375 l 1
 104.790039062 418.396484375 136.920898438 416.396484375 162.595703125 415.396484375 c 1
 161.514524497 453.631725042 161.025390625 463.335149058 161.025390625 478 c 3
 161.025390625 587.323337433 211.272262609 644.168270842 276.787109375 696 c 0
 310.375485538 725.331009463 352.576586724 753.81640625 415.055664062 753.81640625 c 3x78
EndSplineSet
Validated: 33
EndChar

StartChar: g
Encoding: 103 103 6
Width: 580
VWidth: 1159
Flags: W
HStem: -306 93.4424<146.799 339.513> -48.2314 92.4707<202.914 343.203> -41.877 94.2939<264.092 438.36> 387.011 86.2383<454.398 517.429> 431.73 69.2695<194.182 326.901>
VStem: 48.459 78.1553<-191.928 -99.9878> 68.9814 87.0195<233.945 377.19> 386.795 87.0498<222.95 364.283> 455.727 73.5869<-143.248 -60.9852>
LayerCount: 2
Fore
SplineSet
201.693359375 67.91015625 m 1x93
 205.982421875 60.8681640625 214.044921875 44.2392578125 262.918945312 44.2392578125 c 1xd3
 287.958984375 44.2392578125 312.236328125 52.4169921875 344.719726562 52.4169921875 c 1
 468.478881637 52.4169921875 529.313476562 -20.646484375 529.313476562 -91.9755859375 c 1
 529.313476562 -239.212890625 317.064196699 -306 227.282226562 -306 c 1
 104.540039062 -306 48.458984375 -233.969726562 48.458984375 -177.842773438 c 1xa480
 48.458984375 -91.9365234375 102.626953125 -40.6748046875 142.696289062 -14.3466796875 c 1
 110.677734375 15.8173828125 99.2939453125 53.5849609375 93.2939453125 87.7080078125 c 1
 116.293945312 106.732421875 141.719726562 118.947265625 167.833007812 131.009765625 c 1
 104.78515625 157.995117188 68.9814453125 220.659179688 68.9814453125 289.692382812 c 1
 68.9814453125 416.538085938 192.430187628 501 273.021484375 501 c 1xaa
 316.182617188 501 358.291015625 491.1171875 397.061523438 473.392578125 c 1
 424.861328125 474.82226563 447.767578125 473.249023438 476.90625 473.249023438 c 3
 516.07265348 473.249023438 521.80494884 473.249023438 539 473.249023438 c 1
 536 464 515.831054688 387.010742188 515.831054688 387.010742188 c 5
 499.481445312 391.4921875 484.743802639 394.677268314 468.970703125 396.373046875 c 0
 463.09375 397.004882812 459.482421875 396.67578125 454.149414062 396.275390625 c 1
 465.756835938 371.899414062 473.844726562 330.053710938 473.844726562 298.314453125 c 1
 473.844726562 190.411132812 358.62412115 134.935854195 285.75 106.279296875 c 0
 244.9921875 90.251953125 208.227539062 72.255859375 201.693359375 67.91015625 c 1x93
255.1015625 431.73046875 m 1x8b
 192.019674574 431.73046875 156.000976562 381.674804688 156.000976562 312.20703125 c 1
 156.000976562 236.339551194 199.867241055 190.216542766 270 171 c 1
 335.309270966 177.531063117 386.794921875 227.236588886 386.794921875 267.801757812 c 1
 386.794921875 339.036132812 354.708007812 431.73046875 255.1015625 431.73046875 c 1x8b
126.614257812 -161.404296875 m 1xc480
 126.614257812 -197.8671875 189.8515625 -212.557617188 242.661132812 -212.557617188 c 3
 315.09741271 -212.557617188 455.7265625 -162.608398438 455.7265625 -103.555664062 c 1
 455.7265625 -59.0393261306 413.2578125 -41.876953125 370.235351562 -41.876953125 c 1xa480
 334.495156893 -41.876953125 300.700994764 -48.2314453125 274.865234375 -48.2314453125 c 3
 255.05859375 -48.2314453125 222.7578125 -45.4599609375 208.599609375 -45.5068359375 c 1
 146.6484375 -82.063505229 126.614257812 -127.693735055 126.614257812 -161.404296875 c 1xc480
EndSplineSet
Validated: 524321
EndChar

StartChar: h
Encoding: 104 104 7
Width: 629
VWidth: 1159
Flags: W
HStem: -14 67<49.4521 121.234 395.255 443.197> -4 66<51.307 121.942> 412.45 76.75<291.794 415.968>
VStem: 122 86.9678<62.409 369.471 431.579 624.995> 448.733 87.6309<52.5216 374.077>
LayerCount: 2
Fore
SplineSet
206.251953125 357.047851562 m 5x78
 207.732798948 317.024208697 207.072498516 251.770621917 210.037109375 185 c 0
 212.420502092 136 210.539874804 80.2056202813 215.705078125 59.8037109375 c 1
 216.973632812 57.7883855328 224.654283937 58.7619838542 232.194335938 57 c 0
 245.032226562 54 273.041015625 50 289.379882812 49 c 1
 278.875976562 -17 l 1
 242.995117188 -11 218.90625 -4 176.147460938 -4 c 1x78
 139.041992188 -4 86.6611328125 -10 49.556640625 -14 c 1
 43.720703125 53 l 1xb8
 62.3935546875 55 76.3851711444 60.1280003666 95.0712890625 62 c 0
 116.078125 64.1044921875 122.633789062 58.693359375 121.913085938 64.251953125 c 1
 123.92578125 118.028320312 124.076171875 208.930664062 124.076171875 276 c 1
 124.076171875 498.324528188 124 593 122 617 c 1
 122 617 122 617 122 626 c 1
 107.418087094 624.993601249 70.1251875997 616.427418126 50.0068359375 613.405273438 c 1
 29 682.405273438 l 1
 84.841796875 692.150390625 143.143554688 716.749023438 186.203125 752.79296875 c 1
 232.548828125 715.79296875 l 1
 229.990234375 700.79296875 222.929453651 671.677877963 220.973632812 656.79296875 c 0
 213.969726562 606.817773661 209.967773438 519.605871462 208.967773438 431.579101562 c 5
 270.728877789 463.745117188 348.516423699 489.200195312 377.14453125 489.200195312 c 7
 473.075800371 489.200195312 523.838669184 421.181713051 531.725585938 341.200195312 c 4
 533.955078125 317.392807519 536.364257812 232.751841706 536.364257812 177.200195312 c 1
 536.364257812 127.570569337 534.856445312 80.487598054 534.856445312 58.3662109375 c 1
 537.180664062 54.1115956792 544.433191056 53.8971562054 547.912109375 53.4697265625 c 0
 561.784238331 51.4697265625 596.464976824 51.2001953125 611.329101562 47.2001953125 c 1
 598.491210938 -19.7998046875 l 1
 564.189452032 -10.7998046875 540.13420563 -5.7998046875 500.766601562 -5.7998046875 c 1
 461.677734375 -5.7998046875 425.845703125 -12.7998046875 395.444335938 -19.7998046875 c 1
 386.108398438 45.2001953125 l 1
 403.614257812 47.2001953125 416.489066862 50.9117708996 432.790039062 53.2001953125 c 0
 447.5234375 55.2685546875 441.886265997 52.7010579438 443.086914062 71.0419921875 c 0
 444.53125 93.1054687502 448.733398438 126.013671875 448.733398438 142.200195312 c 3
 448.733398438 191.25956166 446.44523111 297.260518715 444.2890625 315.200195312 c 4
 437.153519716 372.264648438 416.802426453 412.450195312 368.005859375 412.450195312 c 7
 306.995480432 412.450195312 263.032404338 387.362304688 206.251953125 357.047851562 c 5x78
EndSplineSet
Validated: 1
EndChar

StartChar: k
Encoding: 107 107 10
Width: 616
VWidth: 1159
Flags: HWO
HStem: -17 69<53.118 119.278 362.031 392.068 509.285 586.514> -5 57<509.285 583.112> -4 69<55.6312 119.278 214.424 263.032> 425 63.2998<330.618 347.943> 430.3 66<480.937 556.257> 614.006 69<55.0389 116.906>
VStem: 119.378 95.3867<60.9269 229.638> 126.605 85.875<68.4182 232.288 283.933 532.214>
LayerCount: 2
Fore
SplineSet
211.479492188 283.932617188 m 1x25
 254.302734375 318.490911554 311.809570312 387.289880169 347.844726562 420.944335938 c 1
 350 423 348 425 346 425 c 1
 339.232052388 425.687088343 332.118627952 425.909939417 324.87890625 427.299804688 c 1
 330.713867188 494.299804688 l 1
 361.747070312 492.299804688 388.470703125 488.299804688 423.004882812 488.299804688 c 0x35
 466.185546875 488.299804688 512.458007812 492.299804688 555.637695312 496.299804688 c 1
 561.473632812 430.299804688 l 1
 476.83203125 424.850585938 438.458007812 379.401367188 392.482421875 350.474609375 c 1
 284.116210938 263.821289062 l 1
 360.512695312 199.732421875 432.687903009 130.137075716 517.169921875 66.451171875 c 0
 538.279296875 50.5380859375 560.24609375 53.716796875 597 52 c 1x4d
 585.330078125 -17 l 1x85
 537.48046875 -11 523.885742188 -5 470.202148438 -5 c 0
 432.85546875 -5 401.086914062 -13 362.575195312 -15 c 1
 356.740234375 58 l 1
 369.32421875 59 384.448242188 60.9609375 392.6171875 62 c 1
 343.451171875 113.790039062 311.948242188 151.428710938 219.614257812 232.340820312 c 1
 219.614257812 231.340820312 212.48046875 222.477539062 212.48046875 221.477539062 c 1x45
 214.030273438 151.759765625 214.764648438 35.7876862961 214.764648438 61.8095703125 c 0
 214.764648438 64.5517578125 220.757551747 66.4052234934 225.267578125 65 c 0x26
 238.10546875 61 259.11328125 60 276.618164062 59 c 1
 264.948242188 -17 l 1x86
 223.600585938 -10 212.989257812 -4 162.9375 -4 c 0
 127.03125 -4 92.9697265625 -12 53.798828125 -14 c 1
 46.7958984375 55 l 1
 65.46875 56 86.4755859375 58 102.814453125 62 c 1
 120.361328125 64.7783203125 117.153320312 56.4453125 119.377929688 65.8896484375 c 1x26
 122.483398438 119.259765625 126.60546875 209.629882812 126.60546875 276 c 1
 126.60546875 437.522054577 123.071861509 554.186492493 122.621229857 606.999994902 c 0
 122.467601286 625.005083754 118.808743729 621.520243241 109.000000675 620.478821903 c 4
 90.6521178341 618.530776511 68.8300098074 615.797958451 55.1904296875 614.005859375 c 1
 35.3505859375 683.005859375 l 1
 108.491210938 695.005859375 143.72265625 709.994140625 199.654296875 753.994140625 c 1
 246.5 716.994140625 l 1
 239.525390625 701.994140625 227.913571532 673.068708638 226.740234375 657.994140625 c 0
 222.017578125 597.319335938 211.5078125 404.125 211.479492188 283.932617188 c 1x25
EndSplineSet
EndChar

StartChar: l
Encoding: 108 108 11
Width: 367
VWidth: 1159
Flags: W
HStem: -17 71<53.1974 135.003 238.141 320.48> -4 65.9082<238.141 317.069> 614.006 69<70.4248 134.292> 733.994 20G<189.345 243.432>
VStem: 143.307 88.8154<72.2645 557.564>
LayerCount: 2
Fore
SplineSet
232.122070312 303 m 1x78
 232.122070312 225.9765625 233.2890625 101.030273438 238.03125 64.337890625 c 1
 240.302734375 62.7392578125 247.33984375 61.8681640625 252.807617188 61.908203125 c 1x78
 279.650390625 56.908203125 304.158203125 56 331 54 c 1
 319.329101562 -17 l 1xb8
 270.99609375 -11 230.486328125 -4 177.758789062 -4 c 1
 138.213867188 -4 91.11328125 -10 53.7646484375 -14 c 1
 47.9296875 55 l 1
 68.9365234375 56 92.27734375 56.908203125 112.1171875 60.908203125 c 1
 130.299804688 59.833984375 135.041992188 67.509765625 136.154296875 69.6884765625 c 1
 139.805664062 124.026367188 143.306640625 218.223632812 143.306640625 276 c 1
 143.306640625 521.963867188 146.5234375 605.442382812 142.536132812 627.477539062 c 0
 144.512695312 607.524414062 139.404296875 619.40234375 136.526367188 620.681640625 c 1
 122.521484375 619.681640625 89.943359375 616.005859375 72.4375 614.005859375 c 1
 52.59765625 683.005859375 l 1
 125.708984375 697.005859375 161.390625 709.994140625 217.299804688 753.994140625 c 1
 265.64453125 716.994140625 l 1
 258.642578125 701.994140625 245.805664062 672.994140625 244.638671875 657.994140625 c 0
 236.790039062 588.994140625 232.122070312 420 232.122070312 303 c 1x78
EndSplineSet
Validated: 33
EndChar

StartChar: m
Encoding: 109 109 12
Width: 923
VWidth: 1159
Flags: W
HStem: -18.5918 65<52.4665 113.929 217.823 274.096 365.909 421.67 672.299 714.585> -4.5918 60.9668<368.214 424.371> 400.396 62<68.207 106.638> 413.115 75.8848<600.705 696.612> 420.753 79.2471<312.005 402.324> 491.994 20G<158.964 212.454>
VStem: 138.548 79.9395<91.5026 356.455> 424.84 94.0771<54.1166 168.523> 431.972 82.8701<55.4744 332.212> 731.831 85.7783<61.0472 374.888>
LayerCount: 2
Fore
SplineSet
817.609375 188.1484375 m 1x12c0
 817.609375 137.539362222 818 90 818 65 c 1
 818 63.4433087711 818 62 821 61 c 1
 836.164047596 58.6913633082 889.66965989 54.0722799389 907 49.4541015625 c 1
 895.330078125 -18.591796875 l 1x92c0
 849.609375 -9.591796875 824.233398438 -4.591796875 771.98046875 -4.591796875 c 0x42c0
 731.702148438 -4.591796875 703.66015625 -11.591796875 673.178710938 -18.591796875 c 1
 665.008789062 46.408203125 l 1
 681.34765625 48.900390625 702.35546875 50.146484375 715.192382812 55.1298828125 c 1
 717.739257812 56.2177734375 719.928710938 59.916015625 723.197265625 85.703125 c 1
 726.438476562 105.477577158 731.831054688 153.312794653 731.831054688 168.009765625 c 1
 731.831054688 211.296161818 729.547851563 289.126780094 730.364257812 302.973632812 c 1
 721.342773438 371.877817749 703.99609375 413.115234375 638.310546875 413.115234375 c 1
 606.114257812 413.115234375 550.006835938 373.903365748 515.215820312 332.364257812 c 1
 513.524414061 329.091796875 514.817382812 327.067382812 514.124023438 326.287109375 c 1
 512.291015623 304.448195124 514.374365813 243.245040096 514.841796875 211.614257812 c 0x92c0
 515.795898438 147.050771864 518.916992188 74.9168871264 518.916992188 51.9228515625 c 1
 520.083984375 55.5244140625 525.083007812 56.572265625 529.419921875 54.5751953125 c 1
 537.58984375 52.0830078125 570.266601562 47.099609375 583.10546875 44.6083984375 c 1
 573.767578125 -18.591796875 l 1x9340
 531.49609375 -9.591796875 521.463867188 -4.591796875 471.603515625 -4.591796875 c 0x4340
 430.416015625 -4.591796875 397.137695312 -11.591796875 366.7890625 -18.591796875 c 1
 358.619140625 46.408203125 l 1x8340
 374.958007812 48.8994140625 402.966796875 53.8828125 414.63671875 56.375 c 1
 418.288085938 56.40625 423.522460938 57.671875 424.83984375 84.3359375 c 1x4340
 426.408203125 104.534297436 431.971679688 154.1590955 431.971679688 169.255859375 c 1
 431.971679688 217.448396232 431.290039062 320.17590126 427.775390625 339.19921875 c 1
 422.379882812 381.462207526 400.3359375 420.752929688 350.203125 420.752929688 c 1x4ac0
 308.342773438 420.752929688 249.1328125 370.059859134 218.487304688 335.580078125 c 1
 218.061523438 247.931640625 217.000976562 106.001953138 217.000976562 69.171875 c 0
 217.000976562 55.943359375 215.932617188 64.509765625 226.3515625 61.474609375 c 1
 237.821289062 58.9833984375 269.756835938 50.7373046875 283.51953125 49.4921875 c 1
 273.016601562 -17 l 1
 228.577148438 -11 214.209960938 -4 164.3515625 -4 c 0
 127.499023438 -4 89.8876953125 -10 53.03515625 -14 c 1
 47.2001953125 53.2294921875 l 1
 63.3310546875 55.2431640625 73.5214342735 55.3503330015 90.1171875 59.3740234375 c 0
 114.799804688 65.3583984375 120.311523438 67.828125 127.848632812 90.05859375 c 1
 135.533203125 120.133789062 138.547851562 197.35546875 138.547851562 236.137695312 c 1
 138.547851562 254.071289062 132.105112738 359.919289994 130.282226562 375.754882812 c 0
 127.541992188 399.559570312 123.364257812 402.48828125 107.161132812 402.48828125 c 1
 96.0400390625 402.48828125 82.828125 400.396484375 68.20703125 400.396484375 c 1
 58.8701171875 462.396484375 l 1
 118.178710938 468.986328125 130.926757812 465.864257812 187.000976562 511.994140625 c 1x26c0
 233.336914062 475.584960938 l 1
 225.911132812 453.916015625 220.341796875 436.936523438 218.486328125 410.93359375 c 1
 258.884765625 448.130073438 326.193359375 500 388.482421875 500 c 1x0ac0
 449.20703125 500 500.7890625 450.541216104 512.758789062 402.295898438 c 1
 558.57421875 441.587241323 609.799804688 489 683.372070312 489 c 1
 806.418945312 489 818.776367188 387.575944392 818.776367188 334.885742188 c 1
 818.776367188 297.290956236 817.609375 226.955508248 817.609375 188.1484375 c 1x12c0
EndSplineSet
Validated: 524321
EndChar

StartChar: n
Encoding: 110 110 13
Width: 641
VWidth: 1159
Flags: W
HStem: -14 66<56.2593 126.888> 403.805 62<65.7402 122.949> 406.914 82.2637<310.82 427.481> 489.994 20G<156.034 213.243>
VStem: 138.261 84.6279<94.0608 360.299> 451.295 88.416<62.24 382.541>
LayerCount: 2
Fore
SplineSet
123 400 m 1xbc
 122 403 116 406 112.421875 405.897460938 c 1
 99.583984375 405.897460938 82.078125 403.8046875 65.740234375 403.8046875 c 1
 56.4033203125 465.8046875 l 1xdc
 114.6953125 475.8046875 127.966796875 467.994140625 184.1015625 509.994140625 c 1
 229.270507812 478.994140625 l 1
 223.125976562 472.184570312 222.877929688 419.432617188 222.288085938 407.994140625 c 1
 270.653320312 444.549804688 327.048828125 489.177734375 386.263671875 489.177734375 c 3
 489.422177213 489.177734375 537.53515625 440.947251225 537.53515625 356 c 3
 537.53515625 310.857617188 539.7109375 231.371972656 539.7109375 185 c 1
 539.7109375 147.284475018 538.59582135 93.2389023318 539.444450499 68.000000674 c 0
 539.559460086 62.8984860711 539.943652561 63.1268504545 540.80078125 62.197265625 c 1
 551.283203125 60.197265625 608.426757812 51 622.403320312 49 c 1
 609.56640625 -18 l 1
 563.935546875 -9 546.356445312 -4 495.29296875 -4 c 0
 455.09375 -4 419.301757812 -11 388.880859375 -17 c 1
 380.711914062 48 l 1
 398.146925647 50.8798510669 431.881083497 54.9394848706 444.334960938 57.8193359375 c 1
 445 60 446.005859374 67.3447265625 447.223632812 79.9970703125 c 1
 448.805352012 94.4679082805 451.294921875 125.543378763 451.294921875 137 c 1
 451.294921875 191.704815338 448.725372615 315.573790028 444.140625 336.005859375 c 1
 440.052169244 372.477813949 427.931613851 406.9140625 379.311523438 406.9140625 c 3
 315.90625 406.9140625 257.344726562 374.497070312 222.888671875 345.291992188 c 1
 224.458007812 251.21875 232.621526875 100.449247312 218.368164062 61.4423828125 c 0
 214.922851562 52.013671875 219.232421875 58.9033203125 236.677734375 55 c 1
 248.122070312 53 272.154296875 51 285.88671875 50 c 1
 276.549804688 -16 l 1
 232.081054688 -10 216.125976562 -4 166.234375 -4 c 0
 129.356445312 -4 93.87890625 -10 57.001953125 -14 c 1
 50 52 l 1
 68.6728515625 53.6357421875 83.2634670351 56.4534123357 101.349609375 57.81640625 c 0
 119.530273438 59.1865234375 122.530273438 58.908203125 127.594726562 71.068359375 c 1
 134.38671875 98.6904296875 138.260742188 164.40234375 138.260742188 199 c 1
 138.260742188 229.683078335 131.158105893 377.990675504 123 400 c 1xbc
EndSplineSet
Validated: 524321
EndChar

StartChar: o
Encoding: 111 111 14
Width: 593
VWidth: 1159
Flags: W
HStem: -22.4824 81.1299<234.823 379.587> 426.518 85<207.55 354.998>
VStem: 41.9062 94.833<168.964 342.574> 453.986 97.0137<146.717 327.096>
LayerCount: 2
Fore
SplineSet
296.208007812 511.517578125 m 7
 457.872752597 511.517578125 551 373.184570312 551 252 c 3
 551 124.388671875 453.939024573 -22.482421875 296.33984375 -22.482421875 c 3
 161.276408807 -22.482421875 41.90625 90.7724609375 41.90625 235.551757812 c 3
 41.90625 411.557617188 193.016329774 511.517578125 296.208007812 511.517578125 c 7
279.079101562 426.517578125 m 3
 192.127868066 426.517578125 136.739257812 343.821289062 136.739257812 256.620117188 c 3
 136.739257812 159.39453125 213.203699326 58.6474609375 311.806640625 58.6474609375 c 3
 407.220082617 58.6474609375 453.986328125 153.299804688 453.986328125 238.234375 c 3
 453.986328125 350.338867188 362.079521472 426.517578125 279.079101562 426.517578125 c 3
EndSplineSet
Validated: 1
EndChar

StartChar: p
Encoding: 112 112 15
Width: 613
VWidth: 1159
Flags: W
HStem: -298 74<217.685 300.955> -16 77.1777<227.3 405.886> 410.162 83.0859<259.008 400.072>
VStem: 114.802 95.0498<129.208 385.04> 123.743 86.1084<-193.745 2.60938 81.7146 309.813> 484.513 84.4873<157.788 314.695>
LayerCount: 2
Fore
SplineSet
123.743164062 58.3212890625 m 3xec
 123.743164062 189.82421875 115.551757812 367.671875 114.801757812 389.575195312 c 1xf4
 114 397 111 401 108 400 c 1
 100 398 71 394 38.0224609375 389.65625 c 1
 21.6845703125 451.65625 l 1
 80.0185546875 459.286132812 115.12890625 468.852539062 165.758789062 518.994140625 c 1
 193.578125 507.905273438 204.8515625 496.81640625 208.8515625 450.2421875 c 1
 251.913085938 468.2421875 301.697265625 493.248046875 348.120117188 493.248046875 c 3
 472.44140625 493.248046875 569 357.817382812 569 265.297851562 c 3
 569 104.037109375 438.788085938 -16 311.640625 -16 c 3
 283.440429688 -16 235.81640625 -8.9970703125 211.639648438 2.609375 c 1
 211.639648438 -64.0458984375 213.262695312 -179.034179688 217.684570312 -203 c 1
 218.827148438 -215.135742188 227.07421875 -219.29296875 232.100585938 -219 c 1
 256.607421875 -222 279.948242188 -223 303.2890625 -224 c 1
 300.955078125 -298 l 1
 253.776367188 -297 232.481445312 -295 179.818359375 -295 c 0
 142.514648438 -295 92.6923828125 -304 53.1953125 -308 c 1
 47.359375 -235 l 1
 67.19921875 -234 85.87109375 -231 103.377929688 -229 c 1
 115.377929688 -225.700195312 117.666015625 -233.5234375 117.45703125 -215.92578125 c 1
 123.053710938 -168.45703125 123.743164062 -85.9111328125 123.743164062 58.3212890625 c 3xec
334.916992188 410.162109375 m 3
 285.532226562 410.162109375 247.234375 392.58984375 209.8515625 375.490234375 c 1xf4
 209.8515625 90.580078125 l 1xec
 246.51171875 74.0126953125 284.506835938 61.177734375 333.387695312 61.177734375 c 3
 441.7421875 61.177734375 484.512695312 168.297851562 484.512695312 227.84375 c 3
 484.512695312 308.509765625 421.299804688 410.162109375 334.916992188 410.162109375 c 3
EndSplineSet
Validated: 524289
EndChar

StartChar: q
Encoding: 113 113 16
Width: 578
VWidth: 1159
Flags: W
HStem: -308 74<331.729 404.178> -298 76<518.728 580.499> -14.0186 81.2695<213.062 379.744> 420.803 80.1787<226.554 393.166> 491 20G<472.095 513.014>
VStem: 41.8652 94.5791<158.345 321.798> 407.301 97.2539<-117.334 15.6064 86.2436 385.143>
LayerCount: 2
Fore
SplineSet
408.30078125 97.0751953125 m 1x36
 409.891601562 192.964959893 412.900390625 282.15262253 413.938476562 377.877929688 c 1
 414.787109378 375.702148435 413 383 411.576171875 385.251953125 c 1
 390.620117188 409.794921875 337.009765625 420.802734375 290.96484375 420.802734375 c 1
 208.070589607 420.802734375 136.444335938 316.591931869 136.444335938 248.671875 c 1
 136.444335938 167.37109375 195.853515625 67.2509765625 272.147460938 67.2509765625 c 1
 346.971361562 67.2509765625 387.009563498 85.41796875 408.30078125 97.0751953125 c 1x36
407.30078125 15.6064453125 m 1
 365.594296252 4.0966796875 315.885159949 -14.0185546875 256.811523438 -14.0185546875 c 1
 137.764648438 -14.0185546875 41.865234375 127.716796875 41.865234375 226.5 c 1
 41.865234375 349.566475832 153.772865884 500.981445312 324.26171875 500.981445312 c 1xb6
 406.778320312 500.981445312 423.412109375 476 440.094726562 476 c 1
 449.209960938 476 463.510742188 492.631835938 480.6796875 511 c 1
 529.181640625 481 l 1
 522.8828125 464.302734375 520.325195312 455.909179688 512.380859375 432.021484375 c 1
 509.716796875 415.32421875 506.864257812 381.931640625 501.895507812 304.008789062 c 1
 502.700195312 282.520439659 504.5546875 161.775611644 504.5546875 121.868164062 c 0
 504.5546875 -88.8613281248 505.700195312 -166.71875 507.30078125 -203.01171875 c 1
 508 -213 510.663085938 -217 517.478515625 -218 c 1
 544.319335938 -220 559.491210938 -222 584 -222 c 1
 580.499023438 -298 l 1x6e
 540.612304688 -296 510.428710938 -294 452.216796875 -294 c 0
 412.330078125 -294 367.854492188 -303 332.28125 -308 c 1
 326.4453125 -234 l 1xa6
 343.951171875 -233 360.291015625 -230 376.629882812 -228 c 1
 392.756835938 -224.926757812 404.926757812 -223.442382812 404.938476562 -223.208007812 c 1
 406.938476562 -203.5078125 407.30078125 -75.1865234377 407.30078125 15.6064453125 c 1
EndSplineSet
Validated: 524289
EndChar

StartChar: r
Encoding: 114 114 17
Width: 505
VWidth: 1159
Flags: W
HStem: -14 21G<74.4301 92.542> -4 65.209<230.567 346.739> 403.204 61<75.0049 131.245> 415.681 97.3193<331.123 413.871>
VStem: 139.568 88.2305<61.209 359.056>
LayerCount: 2
Fore
SplineSet
227.798828125 223.887695312 m 0x18
 227.798828125 183.698242188 228.932617188 82.224609375 232.401367188 61.208984375 c 1
 234.341796875 62.04296875 239.043945312 61.3291015625 274.381835938 59 c 0
 298.915039062 58.4541015625 325.732421875 56 349.073242188 55 c 1
 346.739257812 -7 l 1
 302.927734375 -6 230.774414062 -4 180.635742188 -4 c 0x58
 149.17578125 -4 108.912109375 -10 76.171875 -14 c 1
 70.3369140625 53 l 1
 87.8427734375 54 111.18359375 55 124.021484375 59 c 1
 123.444335938 59.798828125 134.73828125 63.1865234375 134.993164062 82.9384765625 c 1
 136.525390625 111.576171875 139.568359375 232.169921875 139.568359375 262.233398438 c 0
 139.568359375 284.5234375 136.727539062 364.514648438 136.481445312 387.899414062 c 1
 134.9609375 406.431640625 136.865234375 412.122070312 132.190429688 408.934570312 c 0
 111.826171875 403.306640625 104.180664062 403.204101562 75.0048828125 403.204101562 c 1
 57.4990234375 464.204101562 l 1xa8
 108.427734375 468.189453125 150.673828125 488.815429688 196.19921875 531.994140625 c 1
 211.755859375 522.994140625 233.53515625 516.994140625 233.53515625 486.994140625 c 1
 233.53515625 477.327148438 229.052734375 434.99609375 229.052734375 418.423828125 c 1
 277.347401472 462.139234432 351.583061603 513 398.999023438 513 c 0
 428.743093344 513 466.761648846 476.985266073 468.794921875 432.541992188 c 0
 469.389648438 426.05859375 474.16796875 374.03125 373.4921875 378.370117188 c 1
 368.4453125 393.193359375 366.5 415.680664062 348.91796875 415.680664062 c 1
 323.958007812 415.680664062 230.287109375 351.264503591 229.052734375 338.799804688 c 1
 229.227539062 304.58984375 227.798828125 240.1484375 227.798828125 223.887695312 c 0x18
EndSplineSet
Validated: 33
EndChar

StartChar: s
Encoding: 115 115 18
Width: 487
VWidth: 1159
Flags: W
HStem: -14.04 77.9082<172.443 316.876> 427 79<192.474 317.438>
VStem: 94.9111 87.4658<332.736 416.205> 336.582 90.5928<83.2773 179.352> 366.464 48.0918<364.245 379.704>
LayerCount: 2
Fore
SplineSet
123.201171875 177.206054688 m 1xf0
 142.663085938 95.92578125 177.89453125 63.8681640625 250.12109375 63.8681640625 c 3
 306.423828125 63.8681640625 336.58203125 93.1240234375 336.58203125 123.706054688 c 3xf0
 336.58203125 189.541015625 287.2421875 198.213867188 237.766601562 220.259765625 c 0
 180 246 94.9111328125 269.384765625 94.9111328125 377.059570312 c 3
 94.9111328125 441.961914062 166.822265625 506 256.852539062 506 c 3
 307.788085938 506 352.657226562 496.599609375 393.891601562 490.959960938 c 1
 390.563476562 478.358398438 408.563476562 415.52734375 414.555664062 367.169921875 c 1
 366.463867188 347.072265625 l 1xe8
 344.377929688 394.819335938 300.116210938 427 248.291992188 427 c 3
 203.336914062 427 182.376953125 404.4140625 182.376953125 379.173828125 c 3
 182.376953125 352.940429688 196.407226562 319.23828125 286.46875 291.416015625 c 0
 371.041992188 265.331054688 427.174804688 214.357421875 427.174804688 131.956054688 c 3
 427.174804688 36.888671875 323.57421875 -14.0400390625 236.774414062 -14.0400390625 c 3
 169.043945312 -14.0400390625 117.6015625 1.48046875 68.48046875 17 c 1
 74.8798828125 36.7548828125 80.2802734375 58.8330078125 80.2802734375 82.07421875 c 1
 80.2783203125 106.337890625 70.66796875 137.469726562 62 152.139648438 c 1
 123.201171875 177.206054688 l 1xf0
EndSplineSet
Validated: 33
EndChar

StartChar: t
Encoding: 116 116 19
Width: 433
VWidth: 1159
Flags: W
HStem: -17 89.2637<202.486 322.944> 428.313 60<51.3359 92.5542> 432.313 66.8154<200.215 376.412>
VStem: 100.652 93.8164<81.1729 428.305> 107.652 91.9629<129.151 429.313> 145.192 62<546.968 591.722>
LayerCount: 2
Fore
SplineSet
42 488.313476562 m 1xc8
 104.572265625 504.344726562 121.836914062 529.734375 145.192382812 602.396484375 c 1
 207.192382812 590.36328125 l 1xc4
 205.192382812 560.28125 202.21484375 530.415039062 200.21484375 499.12890625 c 1
 263.883789062 500.333007812 325.532226562 501.100585938 383.415039062 503.5078125 c 1
 376.412109375 427.110351562 l 1
 318.891601562 429.19140625 260.58984375 430.231445312 199.615234375 432.313476562 c 1xa8
 198.587890625 427.589558591 194.46875 202.728308671 194.46875 125.420898438 c 3
 194.46875 93.03125 211.247070312 72.263671875 243.971679688 72.263671875 c 3
 291.587890625 72.263671875 337.680664062 97.4375 370.577148438 115.522460938 c 1
 403.254882812 52 l 1
 361.491210938 24 306.0078125 -17 223.719726562 -17 c 3
 192.075195312 -17 100.65234375 -2 100.65234375 119.155273438 c 3xb0
 100.65234375 225.459180451 105.65234375 330.513038532 107.65234375 429.313476562 c 1
 87.0419921875 428.313476562 71.9462890625 428.313476562 51.3359375 428.313476562 c 1
 42 488.313476562 l 1xc8
EndSplineSet
Validated: 1
EndChar

StartChar: u
Encoding: 117 117 20
Width: 608
VWidth: 1159
Flags: W
HStem: -27.0049 21G<433.312 457.943> -15.2842 84.0801<211.607 333.039> 392.644 59<347.303 410.868> 479.47 20G<465.867 503.516>
VStem: 97.5234 92.5938<89.4091 379.694> 406.438 84.7393<112.972 395.372>
LayerCount: 2
Fore
SplineSet
332.130859375 451.643554688 m 1x7c
 385.505859375 463.90625 443.740234375 481.075195312 487.993164062 499.469726562 c 1
 520.353515625 457.775390625 l 1
 501.681640625 420.08203125 491.177734375 197.458984375 491.177734375 151.521484375 c 0
 491.177734375 123.461206969 493.51171875 95.4027905718 498.180664062 70.7109375 c 1
 499.809570312 69.01171875 505.336914062 67.408203125 510.021484375 69.5595703125 c 1
 529.860351562 73.689453125 543.844726562 81.0341796875 564.8515625 85.1640625 c 1
 581.190429688 20.7109375 l 1
 544.268554688 11.3466796875 503.957966115 -5.74832568341 472.936523438 -21.103515625 c 0
 470.793945312 -22.1640625 463.297851562 -27.0048828125 452.588867188 -27.0048828125 c 0xbc
 414.034179688 -27.0048828125 412.962890625 18.1283880081 410.821289062 41.935546875 c 1
 362.583984375 17.654296875 297.008789062 -15.2841796875 236.413085938 -15.2841796875 c 1
 190.067382812 -15.2841796875 140.065429688 3.7158203125 116.161132812 45.7158203125 c 1
 100.796875 76.8828125 98.4710327975 110.461582593 97.5234375 163.190429688 c 0
 96.431640625 223.943359375 96.6513671875 321.819335938 97.8857421875 382.568359375 c 1
 98 384 97 385 94 384 c 1
 75.4458527134 377.453545089 66.1683448925 373.090400224 49.6748046875 366.543945312 c 1
 24 437.654296875 l 1
 70.4462890625 447.375976562 122.118164062 486.1015625 168.657226562 518.994140625 c 1
 207.998046875 477.299804688 l 1
 192.59375 404.327148438 190.1171875 284.266601562 190.1171875 198.418945312 c 0
 190.1171875 118.17578125 203.993164062 68.7958984375 255.151367188 68.7958984375 c 1
 297.947265625 68.7958984375 367.443359375 100.98828125 406.438476562 124.455078125 c 1
 401.03515625 205.361328125 410.892089554 374.879935939 411.665039062 384.35546875 c 0
 413.633789062 408.490234375 402.325195312 396.331054688 347.302734375 392.643554688 c 1
 332.130859375 451.643554688 l 1x7c
EndSplineSet
Validated: 524321
EndChar

StartChar: v
Encoding: 118 118 21
Width: 576
VWidth: 1159
Flags: W
HStem: -28.1377 21G<218.013 309.967> 433.565 72.9346<27.3614 71.758 198.002 238.978 378.805 422.945> 449.5 62<530.449 556.382>
LayerCount: 2
Fore
SplineSet
577.087890625 449.5 m 1xa0
 531.15625 430.724609375 540.760742188 445.108398438 515.181640625 408.43359375 c 0
 476.325195312 346.203612317 434.666015625 252.49762575 399.322265625 185.818359375 c 0
 364.739257812 119.986328125 319.748046875 54.7373046875 300.185546875 -28.1376953125 c 1
 233.6640625 -28.1376953125 l 1
 202.361328125 122.151367188 141.834960938 296.551757812 84.3544921875 413.388671875 c 0
 80.283203125 421.6640625 77.607421875 425.106445312 72.6845703125 426.896484375 c 1
 52.8447265625 432.830078125 37.6728515625 434.752929688 19 439.5 c 1
 28.3369140625 501.5 l 1
 55.0078125 497.5 94.482421875 492.5 124.655273438 492.5 c 0
 166.107421875 492.5 202.356445312 500.5 238.08203125 506.5 c 1
 247.418945312 433.565429688 l 1
 231.080078125 428.818359375 213.57421875 425.256835938 197.235351562 424.0703125 c 1
 197.235351562 421.696289062 199.5703125 421.696289062 199.5703125 420.509765625 c 0
 199.5703125 420.509765625 199.47265625 419.638671875 199.5703125 419.323242188 c 0
 215.140625 369.341796875 260.806640625 219.004882812 291.270507812 135.420898438 c 1
 343.751953125 210.533355187 389.026367188 305.783064681 421.5078125 400.716796875 c 0
 423.697265625 407.163085938 422.747070312 411.478515625 423.2421875 414.307617188 c 0
 424.403320312 420.939453125 401.779296875 425.051757812 365.1171875 434.939453125 c 1
 380.2890625 506.5 l 1xc0
 405.131835938 500.5 439.909179688 494.5 457.655273438 494.5 c 0
 490.55859375 494.5 526.58203125 504.5 553.747070312 511.5 c 1
 577.087890625 449.5 l 1xa0
EndSplineSet
Validated: 33
EndChar

StartChar: w
Encoding: 119 119 22
Width: 823
VWidth: 1159
Flags: W
HStem: 431 71<203.041 231.222 350.837 387.312 654.019 684.349> 439 62<33.4008 82.3899 497.768 531.182> 446.392 62<788.08 812.915>
VStem: 220.245 63<-24.4426 37.3775>
LayerCount: 2
Fore
SplineSet
833.620117188 446.391601562 m 1x30
 765.561523438 413.719726562 793.009765625 435.040039062 760.975585938 380.209960938 c 0
 734.905273438 336.83813004 702.620117188 276.003852531 664.55859375 206.755859375 c 0
 619.35546875 122.143554688 588.838867188 65.7958984375 570.895507812 -21.2001953125 c 1
 567.895507812 -27.7998046875 516.094726562 -25.400390625 514.895507812 -21.2001953125 c 1
 494.641601562 87.5048828125 457.953125 184.274414062 424.3515625 280.879882812 c 1
 406.173828125 239.571289062 382.606445312 199.518554688 361.82421875 160.66015625 c 0
 332.421875 105.684570312 301.569335938 46.09765625 283.245117188 -22.591796875 c 1
 282.044921875 -26.19140625 220.844726562 -28.591796875 220.245117188 -22.591796875 c 1
 204.875 113.2890625 149.677734375 299.521484375 87.2451171875 412.888671875 c 0
 83.482421875 419.721679688 86.734375 423.580078125 83.310546875 424.7578125 c 0
 63.6669921875 431.516601562 44.2421875 434.252929688 23 439 c 1
 33.50390625 501 l 1x50
 60.8525390625 497 100.106445312 492 130.030273438 492 c 0
 170.970703125 492 196.149414062 496 230.236328125 502 c 1
 240.236328125 431 l 1x90
 229.862304688 426.83984375 213.735351562 424.0546875 205.407226562 422.0390625 c 0
 204.1484375 421.734375 203.017578125 421.4765625 202.043945312 421.272460938 c 1
 202.225585938 419.544921875 202.2421875 418.978515625 202.458984375 417.90234375 c 0
 217.655273438 342.388671875 256.19140625 226.592773438 280.696289062 146.935546875 c 1
 312.10546875 206.124023438 364.270507812 329.932617188 395.678710938 395.288085938 c 1
 391.010742188 407.1953125 389.99609375 403.321289062 387.662109375 411.65625 c 1
 385.161132812 419.340820312 381.693359375 418.611328125 379.333984375 419.293945312 c 0
 367.137695312 422.823242188 358.1328125 425.470703125 343.450195312 429 c 1
 351.620117188 496 l 1
 372.899414062 494.260742188 400.71875 493.391601562 426.017578125 493.391601562 c 0
 461.75390625 493.391601562 498.323242188 501.391601562 531.081054688 507.391601562 c 1
 541.916015625 435.391601562 l 1
 527.650390625 429.755859375 511.346679688 426.374023438 497.081054688 425.247070312 c 1
 497.081054688 421.817382812 497.081054688 424.389648438 497.081054688 422.674804688 c 0
 497.081054688 419.430664062 496.606445312 417.506835938 496.606445312 413.788085938 c 3
 496.606445312 370.084960938 537.978515625 214.331054688 556.799804688 136.982421875 c 1
 586.758789062 202.208567962 645.26953125 301.825097589 675.85546875 389.516601562 c 0
 678.584960938 397.497070312 684.60546875 409.940429688 684.60546875 415.306640625 c 0
 684.60546875 418.4375 683.0234375 417.896484375 638.223632812 430.391601562 c 1
 655.73046875 501.391601562 l 1
 674.909179688 496.776367188 703.4609375 491.391601562 718.272460938 491.391601562 c 0
 749.916992188 491.391601562 784.46875 501.391601562 810.279296875 508.391601562 c 1
 833.620117188 446.391601562 l 1x30
EndSplineSet
Validated: 33
EndChar

StartChar: x
Encoding: 120 120 23
Width: 630
VWidth: 1159
Flags: W
HStem: -13 69<51.1011 106.081 203.599 240.397 351.892 403.426> -12 61<522.739 595.735> 422 69<59.3691 150.988> 429 67<397.71 423.994> 443 57<536.21 576.786>
LayerCount: 2
Fore
SplineSet
44.80859375 56 m 1x80
 75.8512242864 60.466796875 93.894766645 62.3173828125 102.780273438 74.0078125 c 1
 94.4887872688 65.5694581755 266.841796875 247.204101562 266.841796875 247.204101562 c 1
 266.841796875 247.204101562 162.602244301 381.671656644 165.3515625 380.579101562 c 1
 127.89453125 428.48828125 157.44921875 422 59.369140625 422 c 1xa0
 59.369140625 496 l 1x10
 91.3001833972 493.5 136.422540013 491 171.290039062 491 c 0x20
 208.119146379 491 263.405022828 495.407359651 291.495117188 502.254882812 c 1
 299.6640625 428 l 1
 291.578455644 427.5 274.09539117 427.5 266 427 c 1
 265 427 260 426 260.086914062 424.400390625 c 1
 265.122040229 419.549784215 326.866666394 318.660751406 331.295898438 314.047851562 c 1
 412.842773438 410.818359375 l 1
 414.865234375 413.690429688 421.974609375 416.692382812 424.453125 427.698242188 c 1
 414.603515625 425.723632811 408.846679688 427.72265625 389.349609375 429 c 1
 398.685546875 496 l 1x10
 432.280541327 493 452.063208673 493 485.658203125 493 c 0
 515.790611592 493 552.092510637 493 575.92578125 500 c 1
 582.927734375 443 l 1
 549.763671875 437.087890625 530.256918922 416.494190886 514.4296875 400.9296875 c 0
 467.436661513 354.71673385 423.116260665 305.113232788 376.264648438 258.73046875 c 1
 420.523687534 202.818020171 476.355989214 135.758088814 518.477539062 76.4169921875 c 0
 535.622070312 52.263671875 528.127929688 61.4619140625 604 49 c 1
 594.663085938 -12 l 1x48
 559.827148438 -8 503.5546875 -4 464.295898438 -4 c 0
 431.088867188 -4 387.008789062 -7 352.634765625 -11 c 1
 345.6328125 53 l 1
 360.650390625 55.33984375 390.629882812 58.8505859375 404.633789062 60.0205078125 c 1
 402 63 398.314329881 67.1776010156 397.998046875 67.6064453125 c 0
 391.795506815 76.0163942445 317.548715269 186.773976494 313.481445312 188.8828125 c 1
 308.821697777 184.711587849 220.351525757 80.2147446386 212.854492188 71.1884765625 c 0
 211.303831017 69.3215136773 204 60 203.598632812 58.7451171875 c 1
 209 59 231.15063711 55.5029296875 247.712890625 54 c 1
 239.543945312 -13 l 1
 210.317382812 -11 183.052734375 -7 152.658203125 -7 c 0
 120.11328125 -7 81.146484375 -11 51.8115234375 -13 c 1
 44.80859375 56 l 1x80
EndSplineSet
Validated: 524321
EndChar

StartChar: y
Encoding: 121 121 24
Width: 584
VWidth: 1159
Flags: W
HStem: 478.1 20G<25.9854 43.4131 215.632 236.149 393.463 408.636 563.157 581.479>
LayerCount: 2
Fore
SplineSet
195.1953125 -303.108398438 m 1
 159.017578125 -303.108398438 172.631835938 -300.900390625 109.22265625 -300.900390625 c 0
 69.3515625 -300.900390625 52.5380859375 -303.108398438 18.501953125 -304.211914062 c 1
 19.6689453125 -281.026367188 22.00390625 -265.953125 15 -241.663085938 c 1
 101.717773438 -231.139648438 108.78125 -211.59375 220.506835938 28.25 c 1
 188.205078125 157.775092733 108 406.923420549 95 422 c 0
 95 422 85.056640625 424.299804688 79.0751953125 425.267578125 c 0
 56 429 38.6044921875 431.891601562 18.7646484375 434.099609375 c 1
 29.267578125 498.099609375 l 1
 57.5585937501 494.099609375 97.4326171878 489.099609375 129.223632812 489.099609375 c 0
 170.064453125 489.099609375 198.583007812 493.141601562 232.681640625 499.204101562 c 1
 244.3515625 431.891601562 l 1
 204.598632812 423.760742188 l 1
 203.8984375 423.703125 202.205078125 423.631835938 202.205078125 423.060546875 c 1
 202.209960938 422.315429688 201.970703124 420.05078125 202.336914062 418.642578125 c 0
 218.407226562 356.48291308 253.873046875 205.247720439 287.23046875 123.616210938 c 1
 332.429710162 198.890594819 396.938769862 323.529108375 429.057617188 401.390625 c 0
 432.177734375 408.951171875 434.520507812 421.426757812 434.7421875 424.864257812 c 1
 428.706054688 424.25292969 403.563476562 425.921875 380.985351562 432.099609375 c 1
 398.491210938 501.724609375 l 1
 418.780273438 496.674804688 458.494140625 489.099609375 476.223632812 489.099609375 c 0
 514.485351562 489.099609375 548.694335938 496.359375 577.619140625 503.620117188 c 1
 590.45703125 437.099609375 l 1
 535.616210938 425.615234375 531.946289062 434.315429688 517.473632812 407.081054688 c 0
 462.037969665 302.54196377 361.927235399 157.116719799 298.333007812 26.1337890625 c 0
 262.249023438 -48.0322265625 192.53125 -231.217773438 195.1953125 -303.108398438 c 1
EndSplineSet
Validated: 33
EndChar

StartChar: z
Encoding: 122 122 25
Width: 604
VWidth: 1159
Flags: W
HStem: -19.9053 21G<72.1116 84.6895 508.072 523.325> 414.853 74<134.101 396.988> 477.253 20G<516.674 546.418>
VStem: 499 65<130.866 161.82>
LayerCount: 2
Fore
SplineSet
458.475585938 -3.7275390625 m 1xb0
 458.475585938 -4.8193359375 241.296875 -4.9423828125 241.283203125 -3.673828125 c 1
 159.818359375 -3.0185546875 92.47265625 -8.3564453125 76.90625 -19.9052734375 c 1
 62.90234375 38.509765625 l 1
 183.086914062 141.288230912 304.342773438 298.116000714 397.303710938 415.344726562 c 1
 379.033203125 414.798828125 354.95703125 414.852539062 336.686523438 414.852539062 c 0
 282.732421875 414.852539062 233.685546875 415.070312501 177.905273438 413.639648438 c 0
 133.3203125 412.497070312 131.6484375 391.400390625 116.890625 345.30078125 c 1
 42.2001953125 371.083007812 l 1
 42.2001953125 371.083007812 95.2138671875 521.940429688 97.8369140625 517.0859375 c 1
 137.830078125 498.262695312 133.853515625 488.852539062 305.064453125 488.852539062 c 0xd0
 428.383789062 488.852539062 498.9453125 485.992187501 534.40234375 497.252929688 c 1
 560.40234375 453.9765625 l 1
 453.6796875 337.559593575 325.390625 182.814564274 225.500976562 67.234375 c 1
 234.274414062 67.234375 375.134765625 69.5 383.907226562 69.5 c 1
 414.262695312 69.5 441.341796875 68.58984375 457.034179688 78.0859375 c 1
 468.544921875 85.6279296875 470.9296875 93.0869140625 481.69921875 121.201171875 c 0
 487.002929688 135.044921875 493.981445312 162.048828125 499 182.633789062 c 1
 564 159.307617188 l 1
 518.40234375 -25.9619140625 l 5
 497.741210938 -13.0029296875 490.733398438 -3.7275390625 458.475585938 -3.7275390625 c 1xb0
EndSplineSet
Validated: 524321
EndChar

StartChar: A
Encoding: 65 65 26
Width: 725
VWidth: 1159
Flags: W
HStem: -22 75<214.977 254.84> -22 67<490.026 516.383> -15 67<31.3079 96.5057 630.647 695.97> 202 62.4482<264.218 447.586> 685.393 20G<344.275 410.333>
VStem: 344.275 64.1035<615.293 704.902>
LayerCount: 2
Fore
SplineSet
264.217773438 264.448242188 m 1x1c
 308.44186632 260.879882811 406.516378165 268 447.5859375 268 c 1
 423.367993165 337.374023438 385.641162109 431.633789062 361.5859375 502 c 1
 333.670696086 433.215820312 293.578112534 331.965820312 264.217773438 264.448242188 c 1x1c
491.801757812 -22 m 1x5c
 474.801757812 45 l 1x5c
 492.68359375 50.6513671875 526.755728275 48.1425214351 516.439453125 72 c 0
 494.702645641 117.326171875 484.147243263 153.69140625 465.5859375 200 c 1
 388.280595798 200 342.932977473 200 242.5859375 202 c 1
 223.951504904 155.235351562 209.714352421 128.88791465 192.40234375 85 c 0
 185 59.1538461538 209 60 259.373046875 53 c 1
 254.373046875 -22 l 1x9c
 187.984375 -7 99.42578125 -9 32 -15 c 1
 30 3.10766601562 27 27.5538330078 23 52 c 1x3c
 83 62 95.4062568643 64.4715508179 104.868164062 87 c 0
 196.065480893 288.649414062 262.709045506 462.937736632 329.18359375 624.994140625 c 0
 342.854492188 660.881835938 340.368164062 670.091796875 344.275390625 704.90234375 c 1
 408.37890625 705.392578125 l 1
 412.287109375 673.306640625 411.986828713 663.579936135 423.37890625 625.392578125 c 0
 492.449675183 408.48828125 540.529010283 284.861627163 629.147460938 70 c 0
 636.864257812 50.0283203125 660.674804688 54.125 700.969726562 50 c 1
 699.969726562 31.837890625 696.969726562 5.8916015625 695.969726562 -14 c 1
 618 -12 558 -5 491.801757812 -22 c 1x5c
EndSplineSet
Validated: 33
EndChar

StartChar: B
Encoding: 66 66 27
Width: 680
VWidth: 1159
Flags: W
HStem: -10 72.1777<75.356 146.886 251.571 461.266> 331 63.2578<251.638 422.484> 631.092 70.9082<261.617 415.887>
VStem: 147.827 103.811<62.6636 331 394.258 565.136> 462.179 96.8213<435.679 579.013> 523.161 98.8389<122.027 269.123>
LayerCount: 2
Fore
SplineSet
68.828125 63 m 1xf4
 116 63 146.292313578 61.7030413032 146.885742188 63.982421875 c 0
 149.336914062 73.5611882341 147.827148438 182.565979601 147.827148438 298 c 1
 147.827148438 453.354502359 145.259944696 594.048092663 139.828125 608.404296875 c 0
 136.8515625 616.169921875 140.077341408 622.352845576 129.827148438 623 c 0
 113.98828125 624 77.9082031249 628 63.828125 630 c 1
 76.828125 704 l 1
 109.828125 699 116.413085938 692 184.413085938 692 c 3
 245.395104313 692 292.45726236 702 351 702 c 3
 487.741210938 702 559 612 559 516 c 3xf8
 559 446.973637853 526.677734375 400.478759376 455.206054688 377.26953125 c 1
 557.217773438 361.277217307 622 276.275616188 622 193 c 3
 622 70.9949494949 506 -10 357 -10 c 3
 297.237621993 -10 257.49330615 -5 190.413085938 -5 c 3
 113.413085938 -5 106.828125 -8 73.828125 -10 c 1
 68.828125 63 l 1xf4
363.413085938 396.2578125 m 0
 436.913085938 408.976116706 462.178710938 439.904951914 462.178710938 490.368164062 c 3
 462.178710938 543.801757812 441.6171875 631.091796875 348.413085938 631.091796875 c 3
 318.545686633 631.091796875 272.867692644 628.047542776 264.21484375 625.400390625 c 0
 255.251953125 621.140625 254.364474957 594.093800546 253.614257812 583.599609375 c 0
 248.315429688 507.87885284 250.670898438 428.602512954 251.637695312 394.2578125 c 1
 339.192726448 394.2578125 344.322085721 393.943701049 363.413085938 396.2578125 c 0
349.68359375 334.73046875 m 0
 326.532960723 334.739395027 276.769573585 331 250.637695312 331 c 1
 252.183593751 231.980344982 250.167852688 135.266826918 251.637695312 79.8837890625 c 0
 252.091796875 62.7734375 253.816826407 62.3892320895 266 62.263671875 c 0
 277.276008334 62.1474609375 335.242220123 62.177734375 376.68359375 62.177734375 c 3
 454.549098002 62.177734375 523.161132812 105.911657191 523.161132812 198.005859375 c 3xf4
 523.161132812 260.765586472 478.330664776 334.65820154 349.68359375 334.73046875 c 0
EndSplineSet
Validated: 33
EndChar

StartChar: C
Encoding: 67 67 28
Width: 724
VWidth: 1159
Flags: W
HStem: -24 80.6895<312.993 527.272> 493.359 21G<577.079 614.075> 628.738 78.2119<302.514 516.769>
VStem: 40 107.698<228.229 456.837> 590.589 64.2314<509.657 568.249> 624.264 59.7236<148.039 179.356>
LayerCount: 2
Fore
SplineSet
40 326 m 3xf4
 40 509.535571412 163.184570312 706.950195312 407.771484375 706.950195312 c 3
 476.05859375 706.950195312 506.989257812 699.7421875 565.984375 681.732421875 c 0
 599.96484375 672.802734374 604.098632812 675.732421874 621.111328125 686.950195312 c 1
 673.372070312 662.080078125 l 1
 650.833984375 614.213867188 653.311523438 597.420898438 654.8203125 539.556640625 c 0
 656.546875 502.180664062 637.561523438 494.360351562 590.588867188 493.359375 c 1xf8
 563.568359375 542.437486088 575.87890625 577.024559603 560.188476562 581.373046875 c 0
 508.586914062 617.842925165 469.72265625 628.73828125 406.80078125 628.73828125 c 3
 256.737304688 628.73828125 147.698242188 516.722728022 147.698242188 338.55078125 c 3
 147.698242188 162.331661587 279.188476562 56.689453125 421.889648438 56.689453125 c 3
 530.081054688 56.689453125 592.385742188 105.799804687 624.263671875 192.999023438 c 1
 683.987304688 177.544921875 l 1
 678.71484375 125.646484375 658.438476562 84.369140625 642.771484375 37.7548828125 c 1
 576.771484375 5.7548828125 514.795898438 -24 423.795898438 -24 c 3
 196.155273438 -24 40 131.414466219 40 326 c 3xf4
EndSplineSet
Validated: 33
EndChar

StartChar: D
Encoding: 68 68 29
Width: 788
VWidth: 1159
Flags: W
HStem: -17 79<56.5863 130.064> -11 83.1807<217.955 488.506> -4 76.2988<243.418 350.85> 628.081 63.9189<237.178 341.538> 628.819 77.1807<243.946 478.497>
VStem: 131.052 112.948<72.3482 194.387 608.081 619.912> 659.165 95.835<230.473 449.037>
LayerCount: 2
Fore
SplineSet
370.845703125 72.1806640625 m 3x46
 531.63671875 72.1806640625 659.165039062 170.35562491 659.165039062 331.540039062 c 3
 659.165039062 507.751506917 547.002929688 628.819335938 343.649414062 628.819335938 c 3x4e
 298.133789062 628.819335938 282.523016645 626.826300458 249.177734375 628.081054688 c 0
 236.227539062 628.568359375 237.873748268 628.561233281 237.177734375 608.081054688 c 0
 231.372070312 432.557303607 231.389534185 228.330167832 244 84.390625 c 0
 244.698826284 76.627258977 239.177092132 72.3443703292 255 72.298828125 c 0x36
 286.858398438 72.2071318515 326.217773438 72.1806640625 370.845703125 72.1806640625 c 3x46
53.029296875 700 m 1
 102.029296875 696 121.014648438 692 168.014648438 692 c 1x96
 252.014648438 692 295.014648438 706 376.014648438 706 c 3
 515.249023438 706 755 604.020225948 755 346 c 3
 755 74.2833333334 541.014648438 -11 354.014648438 -11 c 3x4e
 286.014648438 -11 249.014648438 -4 176.014648438 -4 c 3x26
 143.014648438 -4 107.029296875 -8 57.029296875 -17 c 1
 52.029296875 62 l 1x86
 103.915039062 65.9883148189 130.940253235 69.1867994919 131.051757812 73.068359375 c 0
 135.008222171 227.200976349 130.134055156 517.497396666 125.66796875 617.748046875 c 0
 125.517578125 621.037109375 74.115234375 619.99609375 50.029296875 621 c 1
 53.029296875 700 l 1
EndSplineSet
Validated: 33
EndChar

StartChar: E
Encoding: 69 69 30
Width: 666
VWidth: 1159
Flags: W
HStem: -22 70<80.4213 138.489> -5.54004 72.8955<341.303 515.262> 317 72<246.854 456.065> 621.448 76.7295<70.3213 133.052>
VStem: 138.489 105.905<67.4354 317 389 619.044> 468.601 65.3301<255.751 316.904 389.953 442.229> 505.606 62<536.154 612.47>
LayerCount: 2
Fore
SplineSet
70.3212890625 698.177734375 m 5xbc
 195.3203125 692.177734375 510.293945312 689.177734375 557.293945312 701.177734375 c 5
 617.295898438 657.401367188 570.7109375 655.37109375 567.606445312 536.154296875 c 5
 505.606445312 531.154296875 l 5xba
 499.459960938 568.766601562 513.286096649 611.907887416 498.9453125 613.55078125 c 4
 433.051757812 621.099609375 328.429226023 625.709018391 260.848632812 621.73046875 c 4
 253.616210938 621.3046875 248.87554044 619.025389246 248.84765625 608.200195312 c 4
 248.669921875 536.586561366 247.854492188 455.424240183 246.854492188 389 c 1
 290.1875 391.111328125 447.472650497 388.769604112 451.94921875 389.123046875 c 0
 459.75390625 389.739257812 458.921875 419.629882812 471.763671875 456.18359375 c 1
 540.731445312 442.184570312 l 1
 520.731445312 377.499023438 519.930664062 325.577148438 533.930664062 255.750976562 c 1
 468.600585938 235.751953125 l 1
 449.208007812 291.120117188 459.228060862 318.645716566 453.587890625 318.459960938 c 0
 421.030273438 317.387695312 297.46875 315.908203125 244.854492188 317 c 1
 244.854492188 227.392962058 243.99112393 143.033080905 244.39453125 83.599609375 c 0
 244.499230761 68.9674378553 250.742483635 67.3663675399 255.71875 67.35546875 c 0
 335.978515625 67.1796875 406.752926723 67.2991973507 471.311523438 67.8173828125 c 0
 510.974609375 68.1357421875 522.106445312 90.724609375 561 174.31640625 c 1
 624 159.31640625 l 1
 606 86.90625 594.293945312 62.35546875 579.293945312 -5.5400390625 c 1x7c
 409.293945312 -10.81640625 215.219726562 8.3818359375 82.3212890625 -22 c 1
 63.3212890625 48 l 1
 108.8984375 55.400390625 138.472259713 63.3144541961 138.489257812 69.5341796875 c 0
 138.69921875 148.679939116 138.878774785 598.544206545 138.813476562 615.471679688 c 4
 138.796875 619.617695305 98.9794921879 619.216874996 60.3212890625 621.448242188 c 5
 70.3212890625 698.177734375 l 5xbc
EndSplineSet
Validated: 33
EndChar

StartChar: F
Encoding: 70 70 31
Width: 614
VWidth: 1159
Flags: W
HStem: -16 78<89.165 144.047 256.802 359.337> 313.8 70.1777<252.953 444.704> 626 72<69.165 141.272> 693.595 20G<517.566 565.961>
VStem: 146.08 106.873<66.6879 313.8 383.978 620.834> 459.214 73.9238<255.015 311.783 383.49 426.975> 503.938 64<529.411 609.421>
LayerCount: 2
Fore
SplineSet
359.336914062 -16 m 1xdc
 261.696289062 -0.8447265625 170.814453125 0.8046875 89.1650390625 -16 c 1
 70.1650390625 62 l 1
 117.583984375 67 145.39453125 63.740234375 146.080078125 80.1484375 c 0
 146.568359375 160.782075772 146.130859375 536.015086613 145.440429688 620.833984375 c 0
 146.694335936 620.981490468 107.001953125 620.927551673 57.1650390625 626 c 1
 69.1650390625 698 l 1xec
 177.166015625 693 498.98828125 682.708007812 536.14453125 713.594726562 c 1
 595.77734375 693.90625 571.9375 657.411132812 567.9375 529.411132812 c 1
 503.9375 524.411132812 l 1xda
 491.9375 571.661132812 486.959960938 616.043945311 477.897460938 611.338867188 c 0
 424.657226562 615.482421875 329.932617188 628.291015625 253.331054688 620.276367188 c 0
 251.330078125 620.220703125 250.331054688 614.276367188 250.331054688 604.276367188 c 0
 249.60546875 527.986517181 251.15234375 454.130250943 251.698242188 383.977539062 c 1
 322.220703125 384.497780834 427.971679688 382.380802238 437.55859375 382.467773438 c 0
 446.091796875 382.531599177 447.762695312 398.015184269 461.737304688 440.383789062 c 1
 536.337890625 426.221679688 l 1
 514.337890631 366.453459318 518.137695318 320.680412692 533.137695312 255.014648438 c 1
 459.213867188 236.014648438 l 1
 438.09375 290.328125 448.555664062 313.865234377 437.55859375 312.715820312 c 0
 407.977539062 312.93679305 319.216796875 312.86893528 252.953125 313.799804688 c 1
 253.224609375 214.775665207 253.178710938 135.490769508 255.336914062 73.1484375 c 0
 256.345703125 57.9833984375 264.415039062 67.7509765625 372.336914062 66 c 1
 359.336914062 -16 l 1xdc
EndSplineSet
Validated: 33
EndChar

StartChar: G
Encoding: 71 71 32
Width: 764
VWidth: 1159
Flags: W
HStem: -27 73.8438<356.777 556.311> 294 61<685.204 719> 501.012 21G<585.742 665.598> 640.126 73.874<309.963 524.198> 685 20G<586.899 647.399>
VStem: 40.2275 114.675<243.981 458.279> 576.812 107.096<75.5961 280.081> 589.399 58<685.725 703> 601.598 64<514.371 552.922>
LayerCount: 2
Fore
SplineSet
40.2275390625 337 m 3xf6
 40.2275390625 541.055182434 211.23046875 714 424.399414062 714 c 1xf6
 484.399414062 714 528.564453125 701.678710938 571.797851562 684.091796875 c 0
 593.8125 676.788085938 584.399414062 695.956054688 589.399414062 705 c 1
 647.399414062 703 l 1xed
 665.59765625 516.01171875 l 1
 601.59765625 501.01171875 l 1xec80
 569.885742188 580.028320312 554.571289062 640.125976562 416.530273438 640.125976562 c 3
 261.23828125 640.125976562 154.90234375 518.580225159 154.90234375 365 c 1
 154.90234375 177.861328125 296.267578125 46.84375 469.904296875 46.84375 c 1
 515.243164062 46.84375 535.228515625 57.7490234375 570.916015625 75.5673828125 c 0
 572.008789062 76.11328125 575.2265625 80.9990234375 575.228515625 84.251953125 c 0
 575.259765625 125.011000782 577.904296875 197.716107142 576.8125 268.5703125 c 0
 576.643554688 280.333984375 581.064453125 280.73046875 545.228515625 280 c 0
 516.26953125 280.908203125 490.8203125 281.908203125 459.228515625 284 c 1
 464.228515625 358 l 1
 565.228515625 346 659 346 719 355 c 1
 725 294 l 1
 697.4140625 293 684.189453125 290.006835938 683.908203125 276.5703125 c 0
 682.224609375 200.964521255 681.400390625 136.045587882 680 83.7119140625 c 0
 679 74.3564453125 686 74.5400390625 708 65 c 1
 703 18 l 1
 621 4 505.228515625 -27 437.228515625 -27 c 1
 224.228515625 -27 40.2275390625 130.876953125 40.2275390625 337 c 3xf6
EndSplineSet
Validated: 33
EndChar

StartChar: H
Encoding: 72 72 33
Width: 888
VWidth: 1159
Flags: W
HStem: -17 81<69 133.18 244.984 317.29 593.848 654.229 762.718 823.771> 311.384 78.1406<241.771 659.8> 630 73<249.284 320.771 585.999 654.03> 692 20G<766.404 819.881>
VStem: 133.583 108.097<63.4994 302.891> 656.184 104.004<66.9574 100.431 393.449 629.466>
LayerCount: 2
Fore
SplineSet
68 706 m 5xdc
 150.76953125 690.028320312 226.94140625 688.7578125 320.771484375 703 c 5
 325.771484375 630 l 5xec
 302.134765625 626.142578125 255.42578125 624.16796875 248.365234375 623.828125 c 5
 246.935546875 586.03852014 240.587890625 480.137857728 239.6796875 389.524414062 c 1
 659.799804688 388.431640625 l 1
 660.346679687 454.457039507 654.583007812 626.662109375 654.583007812 626.662109375 c 4
 647.700195312 629.852539062 620.331054688 630.033203125 576.999023438 633 c 5
 585.999023438 705 l 5
 671.524414062 694.044921875 717.036132812 689.514648438 815.771484375 712 c 5
 830.771484375 639 l 5
 809 632 766.0078125 633.614257812 765.641601562 626.83984375 c 4
 756.95703125 460.200560908 755.22265625 130.354347461 760.1875 72.154296875 c 0
 760.815429688 65.056640625 799.365234375 66.3486328125 831.771484375 66 c 1
 823.771484375 -17 l 1
 744.771484375 -9.1142578125 676.999023438 -4.9921875 594.999023438 -18 c 1
 590.999023438 4.75 585.999023438 31.8330078125 580.999023438 60 c 1
 625.385742188 61 655.323242188 61.00390625 656.18359375 75.154296875 c 0
 661.149414061 160.432220483 660.107421874 229.008333527 659.799804688 312.475585938 c 1
 241.771484375 311.383789062 l 1
 241.86328125 232.396819723 238.665039062 130.323547957 241.6796875 75.068359375 c 0
 242.74609375 55.7724609375 301.385742188 65.5654296875 323.771484375 64 c 1
 316.771484375 -17 l 1
 219.771484375 -4.7998046875 152.999023438 -5.8173828125 69 -15 c 1
 56 65 l 1
 84.5595703125 64.6767578125 133.272460938 60.232421875 133.583007812 67.8837890625 c 0
 140.759765625 251.505790893 147.211914062 584.251447053 137.400390625 619.293945312 c 4
 134.635742188 628.809570312 100 629.467773438 63 631 c 5
 68 706 l 5xdc
EndSplineSet
Validated: 33
EndChar

StartChar: I
Encoding: 73 73 34
Width: 443
VWidth: 1159
Flags: W
HStem: -20 21G<62.2965 112.275> 690 20G<68.3281 122.328>
VStem: 176.666 101.55<60.9668 63.9385 367.554 628.224>
LayerCount: 2
Fore
SplineSet
69.828125 710 m 5
 174.827148438 685 272 689 384 706 c 5
 389 625 l 5
 356.243164062 624.287109375 278.248046875 632.189453126 284.939453125 630.223632812 c 4
 277.96484375 511.556232559 264.919921875 310.272300432 278.215820312 63.9384765625 c 0
 278.301757812 62.365234375 325.099609375 57.4619140625 383.19921875 58 c 1
 380.19921875 -17 l 1
 272.291992188 -3 159.72265625 -3 64.828125 -20 c 1
 54.828125 59 l 1
 121.805664062 59.7802734375 176.193359375 53.0322265625 176.666015625 66.078125 c 0
 182.334960932 226.04625396 183.490234367 507.774908871 176.211914062 628.223632812 c 4
 183.669921876 628.099609376 93.2460937501 629.842773438 63.828125 630 c 5
 69.828125 710 l 5
EndSplineSet
Validated: 33
EndChar

StartChar: J
Encoding: 74 74 35
Width: 402
VWidth: 1356
Flags: W
HStem: 689 20G<47.0333 362.235>
VStem: 156.94 106.514<354.39 624.771> 166.102 94.2939<-72.2654 329.868>
LayerCount: 2
Fore
SplineSet
156.940429688 618.66796875 m 0xc0
 154.856445312 628.1171875 101.75390625 630.3203125 41.828125 631 c 1
 48.828125 709 l 1
 167.829101562 682 245 693 361 709 c 1
 366 628 l 1
 335.749023438 628.665039062 263.938476562 625.547851562 263.454101562 620.576171875 c 0xc0
 253 509.330811208 255.909179688 385.783837636 256 232 c 0
 256 109 262.197265625 64 260.395507812 21 c 1
 260.395507812 -80.84375 199.884765625 -146.891601562 133 -200 c 0
 112.712890625 -216.108398438 93.3359375 -230.791015625 74.0390625 -247.389648438 c 1
 31.849609375 -185.997070312 l 5
 55.681640625 -171.092773438 76.77734375 -158.578125 94.7802734375 -143.62890625 c 0
 101.498046875 -138.05078125 107.78515625 -132.134765625 113.623046875 -125.62890625 c 0
 145.461914062 -90.1494140625 163.950195312 -37.1474609375 166.1015625 74 c 0xa0
 166.626953125 106.317997874 159.268554688 607.83282447 156.940429688 618.66796875 c 0xc0
EndSplineSet
Validated: 524321
EndChar

StartChar: K
Encoding: 75 75 36
Width: 747
VWidth: 1159
Flags: W
HStem: -20 68<235.358 309.395> -17.0029 63<465.785 472.976 653.161 708.72> 632 66<433.8 483.905> 638 65<62 129.004 235.185 306.772 576.674 635.019>
VStem: 129.314 103.657<59.0036 290.108 380.66 627.352>
LayerCount: 2
Fore
SplineSet
433.799804688 698 m 1x28
 501.799804688 687 563.772460938 692 634.772460938 709 c 1
 650.772460938 638 l 1
 606.241210938 627.631835938 580.415039062 624.758789062 561.255859375 605.595703125 c 0
 483.00153793 534.810282028 381.939831482 443.077543979 299.479492188 363.127929688 c 1
 621.26171875 87.16015625 l 1
 660.232421875 58.15625 687.126953125 55.552734375 716.6328125 40.9267578125 c 1
 707.6328125 -16.0732421875 l 1
 674.086546024 -11.6591796875 643.851198966 -7.0029296875 606.784179688 -7.0029296875 c 0
 547.620711037 -7.0029296875 518.385637661 -12.0029296875 467.006835938 -17.0029296875 c 1
 456.006835938 45.9970703125 l 1x58
 512.31640625 52.400390625 l 1
 496.614410929 62.91796875 320.324886038 212.461914062 229.51953125 290.108398438 c 1
 229.51953125 219.125976562 230.564453125 116.370117188 232.971679688 71.7060546875 c 0
 233.245117188 60.49609375 259.571289062 57.76953125 316.571289062 48 c 1
 308.571289062 -20 l 1
 227.571289062 -5 162 -2 53 -14 c 1
 47 58 l 1
 103.322265625 57.4248046875 132.711914062 53.3828125 129.314453125 55.9755859375 c 0
 133.724609375 234.780417767 135.724609375 435.086387627 131.23828125 611.5703125 c 0
 133.45703125 638.3359375 118.436523438 629.349609375 49 638 c 1
 62 703 l 1
 148 687 225.772460938 691 306.772460938 703 c 1x98
 314.772460938 632 l 1
 258.728515625 628.490234375 235.08203125 627.377929688 234.94921875 621.477539062 c 1
 232.151367188 547.982739196 230.004882812 455.261569205 229.51953125 380.66015625 c 1
 297.428684314 447.053919376 391.175904682 532.802807924 459.57421875 603.61328125 c 0
 475.333984375 619.553710938 484.057617188 624.471679688 484.057617188 626.01171875 c 0
 484.057617188 624.276367188 451.737304688 628 429.799804688 632 c 1
 433.799804688 698 l 1x28
EndSplineSet
Validated: 33
EndChar

StartChar: L
Encoding: 76 76 37
Width: 669
VWidth: 1159
Flags: W
HStem: -25.7402 21G<592.711 617.77> -14 78<55.4873 121.771> -5 77.0859<226.218 474.654> 691 20G<47.108 92.9868>
VStem: 123.418 101.841<72.0724 623.713> 573.947 70<109.532 165.373>
LayerCount: 2
Fore
SplineSet
317.659179688 706 m 1x5c
 323.659179688 630 l 1
 228.25390625 620.18359375 222.115234375 648.55859375 223.453125 593.65625 c 0
 227.205078125 535.452648076 226.2421875 145.571680449 225.258789062 128.154296875 c 5
 226.065429688 81.458984375 226.725585938 72.2177734375 233.266601562 72.0859375 c 4x3c
 300.21792555 70.8857421875 470.215926305 75.6875 516.047851562 79.087890625 c 4
 559.873046875 89.2001953125 541.301757812 90.41796875 573.947265625 179.373046875 c 5
 643.947265625 165.373046875 l 5
 645.008789062 96.46484375 630.0234375 122.51171875 605.516601562 -25.740234375 c 5x9c
 579.905273438 -17.91796875 572.72265625 -8.3798828125 527.072265625 -6.92578125 c 4
 512.962375515 -6.4541015625 420.072265625 -5 313.072265625 -5 c 4x3c
 81.072265625 -5 105.487304688 -14 55.4873046875 -14 c 5
 47.4873046875 64 l 5
 90.8759765625 64.6220703125 123.07421875 66.1630859375 123.41796875 74.6015625 c 4
 124.26953125 85.4345703125 125.033203125 187.306640625 124.486328125 303 c 0
 123.39453125 453.441422571 120.047851562 599.196056319 118.833984375 615.116210938 c 0
 117.884765625 627.00390625 101.873046875 624.419921875 42.4873046875 624 c 1
 48.4873046875 711 l 1
 137.486328125 685 238.659179688 690 317.659179688 706 c 1x5c
EndSplineSet
Validated: 33
EndChar

StartChar: M
Encoding: 77 77 38
Width: 984
VWidth: 1159
Flags: W
HStem: -18 78<672.238 754.353> -3.79883 21G<453.591 526.72> 623 79<839.281 939.706> 627 82<55.3082 164.705>
VStem: 150.073 80.8359<72.2604 329.755> 454.019 67.7969<-3.79883 77.8595> 752.209 87.1523<363.873 525.5> 760.226 92.6426<74.3039 330.173>
LayerCount: 2
Fore
SplineSet
944 -16 m 1x2d
 857.998046875 -1 773.225585938 2 673.225585938 -18 c 1
 662.225585938 60 l 1
 722.309570312 73.5 754.412109375 72.7998046875 760.225585938 84.2216796875 c 0xad
 765.456054686 220.733879448 759.223632812 404.408247508 752.208984375 525.5 c 1
 692.398396186 399.394152631 615.936142889 243.482004978 561.116210938 125.4296875 c 0
 544.647460938 87.341796875 531.624023438 42.1748046875 521.815429688 -3.798828125 c 1
 454.018554688 -3.798828125 l 1x4e
 453.1640625 54.666015625 442.291015625 92.603515625 422.171875 135.4296875 c 1
 420.127885993 137.410258267 249.673610456 526.435941686 245.40625 545.642578125 c 5
 235.55859375 426.174890481 230.067382811 232.618210879 230.909179688 105.099609375 c 0
 231.534179688 51.802734375 219.459960937 75.123046875 319.407226562 60 c 1
 309.407226562 -18 l 1
 234.407226562 -3 135.418945312 0 42.4189453125 -20 c 1
 34.4189453125 57 l 1
 140.254882812 65.3564453125 151.744140624 80.7314453125 150.073242188 92.2763671875 c 1
 150.038085938 94.5666570937 168.163085938 564.551901571 167.811523438 568.404296875 c 0
 170.213867187 589.65234375 167.54296875 609.361328125 156.2421875 614.971679688 c 0
 143.655273438 620.969726562 130.357421875 628.205078125 43.41796875 627 c 1
 56.41796875 709 l 1x9e
 122.418945312 698 194.796875 692 258.796875 694 c 1
 285.963867188 694.783203125 292.338867188 666.744140625 295.088867188 665.282226562 c 0
 358.796499429 503.573754313 433.300264175 328.459304217 508.208984375 172.5 c 1
 506.287990871 181.418745584 747.814453125 673.700820594 747.814453125 675 c 0
 754.814453125 689 767.814453125 700 785.814453125 698 c 0
 839.814453125 692 885.998046875 697 938.997070312 702 c 1
 946.997070312 623 l 1
 870.116210938 616.163085938 837.280273438 629.33984375 839.361328125 614.765625 c 0x2e
 837.439453125 449.308735572 849.081054688 267.289648356 852.868164062 79.2216796875 c 0
 853.109375 67.42578125 869.211914062 69.89453125 947 67 c 1
 944 -16 l 1x2d
EndSplineSet
Validated: 524321
EndChar

StartChar: N
Encoding: 78 78 39
Width: 886
VWidth: 1159
Flags: W
HStem: -20 89<72.0117 130.563> 614 82<50.6035 137.884> 623 73<784.208 853> 627 80<604.823 694.008>
VStem: 132.402 86.3906<64.9152 323.661> 140.402 84.3906<331.852 533.817> 696.501 70.3896<165.12 319.414> 706.891 74<-6.28128 20.1387>
LayerCount: 2
Fore
SplineSet
50.603515625 696 m 1xc4
 81.3330078125 696.640625 148.493164062 686.474609375 190.16796875 686 c 0
 211.181640625 685.760742188 222.629882812 672.422851562 227.16796875 667 c 0
 370.162109375 498.461914062 525.529296875 334.196289062 696.500976562 165.120117188 c 1
 698.8671875 283.051757812 702.834960938 435.67578125 700.610351562 557.122070312 c 0
 698.859375 654.416015625 664.610351562 615.305664062 596.610351562 627 c 1
 605.610351562 707 l 1x96
 696.610351562 692 769 691 853 696 c 1
 862 623 l 1
 807.8671875 616.819335938 783.948242188 629.309570312 783.723632812 626.122070312 c 0
 770.940429688 446.7265625 766.890625 280.240234375 766.890625 82.6064453125 c 0xa6
 766.890625 55.2783203125 774.890625 18.51171875 780.890625 -4.2001953125 c 1
 706.890625 -26.2001953125 l 1
 689.044921875 21.728515625 657.010742188 67.8251953125 622.390625 105.036132812 c 0
 489.8359375 245.224609375 362.016601562 398.592773438 224.79296875 533.817382812 c 1xa5
 224.79296875 525.423828125 221.020507812 143.622070312 218.79296875 135.423828125 c 1
 215.803710938 36.0966796875 239.60546875 69.43359375 333.79296875 62 c 1
 317.79296875 -28 l 1
 226.79296875 11 159.01171875 -10 72.01171875 -20 c 1
 61.01171875 69 l 1
 115.626953125 67.2392578125 131.387695312 56.6171875 132.40234375 75.423828125 c 0xa8
 141.153320312 235.361328125 140.40234375 432 140.40234375 577.307617188 c 3
 140.40234375 601.703125 126.606445312 626.986328125 47.603515625 614 c 1
 50.603515625 696 l 1xc4
EndSplineSet
Validated: 33
EndChar

StartChar: O
Encoding: 79 79 40
Width: 817
VWidth: 1159
Flags: W
HStem: -27 82.8301<325.497 508.063> 620.624 84.376<301.191 484.178>
VStem: 49 102.659<232.767 451.161> 657.604 109.967<227.157 436.401>
LayerCount: 2
Fore
SplineSet
390.59765625 620.624023438 m 3
 262.79296875 620.624023438 151.659179688 499.486328125 151.659179688 342.061523438 c 3
 151.659179688 189.09765625 277.60546875 55.830078125 418.573242188 55.830078125 c 3
 554.06640625 55.830078125 657.603515625 197.864257812 657.603515625 337.931640625 c 3
 657.603515625 470.916015625 544.291015625 620.624023438 390.59765625 620.624023438 c 3
405.77734375 705 m 3
 592.665039062 705 767.5703125 539.37109375 767.5703125 332 c 3
 767.5703125 135 599.834960938 -27 415.786132812 -27 c 3
 247.887695312 -27 49 101.501953125 49 334 c 3
 49 532 217.762695312 705 405.77734375 705 c 3
EndSplineSet
Validated: 1
EndChar

StartChar: P
Encoding: 80 80 41
Width: 660
VWidth: 1159
Flags: W
HStem: -27 69<83.9875 152.704> -20 76<261.566 340.398> 194 70.4697<256.098 408.572> 201.003 69.3623<255.583 302.784> 607.46 83.54<246.934 416.972>
VStem: 145.287 102.128<341.609 606.473> 509.142 97.8584<361.866 512.897>
LayerCount: 2
Fore
SplineSet
313.235351562 264.469726562 m 1x2e
 427.348797031 264.469726562 509.141601562 345.226010736 509.141601562 439.091796875 c 1
 509.141601562 504.022120904 452.746335663 575.725098267 402.235351562 592.784179688 c 0
 380.44898901 600.665817576 334.151367188 607.459960938 265.624023438 607.459960938 c 1
 238.143554689 607.459960938 247.387420072 602.944179048 247.415039062 601.828125 c 0
 249.010742188 532.985924706 253.166992189 389.944695686 252.583007812 270.365234375 c 1x1e
 271.5703125 264.626953125 291.250976562 264.469726562 313.235351562 264.469726562 c 1x2e
59.828125 686 m 1
 96.828125 682 114.413085938 680 163.413085938 680 c 1
 231.413085938 680 257 691 323 691 c 1
 488.406593407 691 607 571.223255965 607 444 c 1
 607 344.599443151 531.545313583 194 303.413085938 194 c 1xae
 290.174804688 194 265.18359375 199.002929688 255.583007812 201.002929688 c 1
 256.583007812 147.813420799 259.964931185 89.1440067203 260.798828125 67.6376953125 c 0
 261.3984375 57.0303845199 313 65.0224766952 347.3984375 56 c 1
 340.3984375 -20 l 1x5e
 243.3984375 2 200.827148438 5 86.828125 -27 c 1
 58.828125 42 l 1x8e
 137.827148438 64.234375 156.271476635 52.990394274 156.428710938 63.6142578125 c 0
 158.64453125 213.330777326 155 528.700473023 145.287109375 604.471679688 c 0
 144.897547447 607.510690267 120.348632812 606.440225035 54.828125 606 c 1
 59.828125 686 l 1
EndSplineSet
Validated: 33
EndChar

StartChar: Q
Encoding: 81 81 42
Width: 795
VWidth: 1361
Flags: W
HStem: -188.767 76.7666<688.683 906.292> -29 78<327.544 442.603> 632.914 72.0859<292.006 480.784>
VStem: 43.042 107.953<246.834 476.271> 640.025 106.188<224.703 459.733>
LayerCount: 2
Fore
SplineSet
379.380859375 632.9140625 m 3
 252.116517778 632.9140625 150.995117188 518.653078994 150.995117188 377.061523438 c 3
 150.995117188 169.374678563 290.183648085 49 414.21875 49 c 3
 541.142978914 49 640.025390625 175.379584325 640.025390625 325.7421875 c 3
 640.025390625 531.544921875 513.835930151 632.9140625 379.380859375 632.9140625 c 3
535.829101562 6 m 1
 616.829101562 -71.5888671875 714.38671875 -112 808.829101562 -112 c 3
 853.809570312 -112 891.814453125 -105.663085938 911 -100.766601562 c 1
 930 -156.766601562 l 1
 905.05078125 -169.243164062 852.947265625 -188.766601562 788 -188.766601562 c 3
 621.013671875 -188.766601562 529.065429688 -125.819335938 422.829101562 -29 c 1
 182.54038278 -29 43.0419921875 140.325484274 43.0419921875 353 c 3
 43.0419921875 551.748046875 195.17366484 705 390.21875 705 c 3
 586.275659784 705 746.212890625 546.388671875 746.212890625 356 c 3
 746.212890625 205.062294716 660.247180888 53.3465653153 535.829101562 6 c 1
EndSplineSet
Validated: 1
EndChar

StartChar: R
Encoding: 82 82 43
Width: 785
VWidth: 1159
Flags: W
HStem: -39 72<684.869 759> -21 21G<268.144 308.457> 248 69<233 379.949> 614 72<52.8281 127.632> 629.724 75.2764<231.304 413.87>
VStem: 125 108.27<66.8957 252 320 612.489> 490.432 91.5684<395.879 554.227>
LayerCount: 2
Fore
SplineSet
233 320 m 1x2e
 257.291015625 319 287.096679688 317 314.005859375 317 c 3
 434.259460772 317 490.431640625 392.572825642 490.431640625 480.736328125 c 3
 490.431640625 553.430583675 425.14842786 629.723632812 337.827148438 629.723632812 c 3
 279.727287519 629.723632812 226.569655746 622.034963784 231.0859375 608.954101562 c 0
 235.736328125 595.484809264 233.545898438 394.317804892 233 320 c 1x2e
52.828125 686 m 1x76
 99.8876953125 685 128.34375 684 169.413085938 684 c 1
 228.08984375 684 253.404296875 705 323 705 c 3
 453.020080321 705 582 613.748717949 582 488 c 3
 582 390.776058986 525.124944477 323.515001847 473 289 c 1
 591.681784893 91.3653828461 666.398779043 36.7079144821 774 33 c 1
 759 -39 l 1xae
 598.815379254 -34.3634193885 447.756858885 123.598846826 381 253 c 1
 358.461987876 249.783680113 343.002452141 248 321.513671875 248 c 3
 286.620824246 248 260.256835938 251.2421875 233 252 c 1
 233.168945312 191.918956318 237.510413059 130.25254725 233.26953125 76.98828125 c 0
 232.173828125 63.2265625 264.333007812 60.8662109375 319 60 c 1
 305 -21 l 1
 231.287109375 1 151.740234375 3 68.828125 -17 c 1
 53.828125 63 l 1
 117.80266861 61.4452707413 124.379153294 78.3660237044 125 73 c 1
 134.284633187 297.794294939 130.674107142 399.765243197 127.482421875 602.110351562 c 1
 125.784179688 615.255859375 111.489257812 612 52.828125 614 c 1
 52.828125 686 l 1x76
EndSplineSet
Validated: 33
EndChar

StartChar: S
Encoding: 83 83 44
Width: 585
VWidth: 1159
Flags: W
HStem: -17 80.6318<202.862 397.374> 630.454 79.5459<218.599 384.425>
VStem: 84.5176 93.0684<468.164 591.175> 438.88 91.1201<103.904 231.395> 452.586 66.625<510.093 562.167>
LayerCount: 2
Fore
SplineSet
37.822265625 219.594726562 m 1xf0
 107.419921875 230.392578125 l 1
 135.213867188 153.200195312 143.486257604 119.684486204 155.057617188 109.982421875 c 0
 182.641601562 86.8544921875 257.209960938 63.6318359375 312.68359375 63.6318359375 c 3
 408.291015625 63.6318359375 438.879882812 112.772732165 438.879882812 171.103515625 c 3xf0
 438.879882812 262.992879355 321.257720465 298.43231614 234.16796875 336.459960938 c 0
 213.282226562 344.697265625 84.517578125 383.016601562 84.517578125 515.01171875 c 3
 84.517578125 610.696289062 174.734375 710 311.404296875 710 c 3
 374.973632812 710 420.811740079 697.074557361 445.235351562 681.448242188 c 0
 458.165039062 673.17578125 448.040039062 677.534179688 455.80078125 704 c 1
 519.80078125 688 l 1
 499.1328125 608.182617188 506.973936588 607.60848306 519.2109375 563.6796875 c 0
 534.810546875 507.6796875 502.5859375 492.341796875 452.5859375 501.7421875 c 1xe8
 440.309570312 542.944335938 441.717194689 544.883424107 427.763671875 567.01171875 c 0
 406.385742188 600.9140625 365.453125 630.454101562 301.954101562 630.454101562 c 3
 240.396484375 630.454101562 177.5859375 604.946670272 177.5859375 528.080078125 c 3
 177.5859375 452.219237227 234.410735813 436.450332181 391.217773438 367.442382812 c 0
 504.165039062 317.736328125 530 244.376953125 530 179.59765625 c 3
 530 94.59765625 472.420898438 -17 296.143554688 -17 c 3
 253.466796875 -17 198.345703125 -5.81640625 147.879882812 14.18359375 c 1
 151.01171875 5.18359375 143.813476562 0.400390625 140.626953125 -12 c 1
 74.626953125 -5 l 1
 80.984375 84.759765625 74.587890625 84.318359375 37.822265625 219.594726562 c 1xf0
EndSplineSet
Validated: 33
EndChar

StartChar: T
Encoding: 84 84 45
Width: 719
VWidth: 1159
Flags: W
HStem: 603.006 77.994<96.7261 310.236 410.58 613.596> 684 20G<660.893 695.981>
VStem: 305.598 102.93<62.8697 603.006> 600 80<546 602.779>
LayerCount: 2
Fore
SplineSet
132.356 682.454 m 0
 293.327 683.184 465.459751471 678.834256215 630.393 681 c 0
 651.465355875 681.276701782 656.393 693 665.393 704 c 1
 717.393 670 l 1
 699.638231733 629.181589425 678.990514004 582.609332696 680 534 c 1
 600 546 l 1
 600 546.284555678 613.596 603.512 613.596 603.512 c 5
 584.032 599.375 471.984 601.791 410.58 603.006 c 1
 409.642 439.84 418.138677637 250.979212879 408.528 89.8 c 0
 406.24 51.4283 401.596 67.7272 514.586 60 c 1
 504.586 -23 l 1
 424.414 0 284.271 -7 210.414 -33 c 1
 196.414 55 l 1
 263.292 56.735 305.56776824 64.0380952193 305.598 70.258 c 0
 306.138 181.358 308.316 516.892 310.236 604.552 c 1
 268.064 603.368 197.701 605.151 148.081 604.995 c 0
 103.915653105 604.856148849 110.8 612 75.012 537.42 c 1
 -1.988 569.42 l 1
 21.4524 611.808 51.5402 684.019 72.8048 722 c 1
 94.5304 704.276 119.315788046 682.394862921 132.356 682.454 c 0
EndSplineSet
Validated: 524321
EndChar

StartChar: comma
Encoding: 44 44 47
Width: 220
VWidth: 1159
Flags: W
HStem: -135.119 286.56
VStem: 19.2002 177.6<36.2962 81.2048>
LayerCount: 2
Fore
SplineSet
50.880859375 -135.119140625 m 1
 24.48046875 -89.51953125 l 1
 56.9111328125 -69.1201171875 97.080078125 -42.7802734375 84 -12 c 0
 73.9501953125 11.650390625 54.529296875 29.7880859375 30 39.599609375 c 0
 24 42 19.2001953125 50.400390625 19.2001953125 57.599609375 c 3
 19.2001953125 64.7998046875 24.6748046875 69.5390625 30 73.2001953125 c 0
 62.6982421875 95.6796875 70.263671875 108.697265625 88.3203125 140.640625 c 0
 91.5009765625 146.265625 99.1201171875 151.440429688 106.3203125 151.440429688 c 3
 113.520507812 151.440429688 118.944335938 145.571289062 123.12109375 140.640625 c 0
 145.09765625 113.620117188 160.73828125 94.9384765625 181.200195312 86.400390625 c 0
 192.16796875 82.0048828125 196.799804688 74.5849609375 196.799804688 67.2001953125 c 3
 196.799804688 14.837890625 140.131835938 -87.599609375 50.880859375 -135.119140625 c 1
EndSplineSet
Validated: 33
EndChar

StartChar: period
Encoding: 46 46 48
Width: 220
VWidth: 1159
Flags: W
HStem: -29.2686 179.736<85.3899 133.359>
VStem: 20.8965 177.807<35.9465 82.7318>
LayerCount: 2
Fore
SplineSet
189.103515625 40.5546875 m 0
 152.89453125 19.97265625 144.977539062 12.1259765625 127.200195312 -19.6689453125 c 0
 124.043945312 -25.3076171875 117.599609375 -29.2685546875 110.400390625 -29.2685546875 c 3
 103.200195312 -29.2685546875 94.6796875 -25.1142578125 91.2001953125 -19.6689453125 c 0
 74.984375 5.6689453125 65.8837890625 21.7705078125 31.697265625 42.2451171875 c 0
 26.1748046875 45.5576171875 20.896484375 54.2451171875 20.896484375 61.4453125 c 3
 20.896484375 68.64453125 26.4150390625 73.34375 31.697265625 77.044921875 c 0
 62.0263671875 98.2548828125 74.212890625 107.846679688 91.2001953125 139.66796875 c 0
 94.23828125 145.370117188 103.200195312 150.467773438 110.400390625 150.467773438 c 3
 117.599609375 150.467773438 123.907226562 145.227539062 127.200195312 139.66796875 c 0
 141.857421875 114.952148438 155.05078125 95.4345703125 189.103515625 75.35546875 c 0
 194.65234375 72.078125 198.703125 66.955078125 198.703125 59.7548828125 c 3
 198.703125 52.5546875 194.71484375 43.7412109375 189.103515625 40.5546875 c 0
EndSplineSet
Validated: 1
EndChar

StartChar: uni0307
Encoding: 775 775 49
Width: 0
VWidth: 1159
Flags: W
HStem: 468.956 121.887<-219.389 -134.184>
VStem: -234.522 116.244<484.251 575.049>
LayerCount: 2
Fore
SplineSet
-179.887 590.844 m 0
 -147.462 590.844 -118.278 563.555 -118.278 526.115 c 0
 -118.278 490.69 -156.273 468.956 -173.913 468.956 c 0
 -206.338 468.956 -234.522 495.245 -234.522 532.685 c 0
 -234.522 568.11 -197.527 590.844 -179.887 590.844 c 0
EndSplineSet
Validated: 1
EndChar

StartChar: dotlessi
Encoding: 305 305 50
Width: 292
VWidth: 1159
Flags: W
HStem: 376.682 66<26.7632 80.2895>
VStem: 87.4673 90.2697<61.2459 383.545>
LayerCount: 2
Fore
SplineSet
177.737 208.63 m 3
 177.737 167.160111268 181.324624027 112.143078795 186 73 c 1
 186.287410413 65.1717177462 194.45312153 62.3437601665 202.62 60.4971 c 0
 229.462 54.4277 253.97 53.2139 280.812 52 c 1
 267.974 -17 l 1
 219.84 -11 165.142 -4 112.632 -4 c 0
 76.5306 -4 56.1311 -11 16.7485 -16 c 1
 9.74623 50 l 1
 30.753 51.2061 60.3617253066 56.9698118904 79.3667 60.2488 c 0
 92.1654 62.457 88.4161824175 55.0216659073 88.4093 85.3191 c 0
 88.4033 111.732 87.4673 177.902 87.4673 206.792 c 3
 87.4673 225.215 87.7018666486 301.232635023 84.5726 366.736 c 0
 84.0956765356 376.719199025 84.1872 386.65 80.6993 386.65 c 1
 72.2694 386.65 43.6929 379.597 29.1149 376.682 c 1
 6.9414 442.682 l 1
 84.9794 459.677 92.4976 457.452 156.639 521.787 c 1
 206.817 475.66 l 1
 200.77 458.015 192.588104357 431.17534012 188.465 409.785 c 0
 180.302 367.436 177.737 226.276 177.737 208.63 c 3
EndSplineSet
Validated: 33
EndChar

StartChar: uniFB01
Encoding: 64257 64257 51
Width: 576
VWidth: 1159
Flags: W
HStem: -7 33<326.576 383.392> -6 36<34 95.891 473.708 547.909> 1 32<191.619 271.026> 360 37<39 113 187 374.27> 701 55<287.006 403.458>
VStem: 114 71<42.7113 360 397 601.139> 396 65<39.2303 341.179>
LayerCount: 2
Fore
SplineSet
338 355 m 0x9e
 288 360 238 358 186 360 c 1
 185 330 185 305 185 293 c 3
 185 211 186 134 191 54 c 0
 192 39 198 34 214 33 c 0x3e
 239 32 251 32 276 31 c 1
 273 -6 l 1x5e
 231 -1 182 1 140 1 c 3x3e
 110 1 64 -2 34 -6 c 1
 33 30 l 1x5e
 44 31 58 31 69 33 c 0
 100 40 104 53 106 81 c 0
 111 133 114 201 114 266 c 3
 114 286 113 323 113 360 c 1
 88 359 64 356 39 355 c 1
 39 401 l 1
 64 400 88 398 113 397 c 1
 113 436 113 481 113 493 c 3
 113 601 137 644 224 704 c 0
 263 731 342 756 384 756 c 3
 412 756 477 736 502 716 c 1
 501 689 500 689 451 652 c 1
 412 670 392 701 308 701 c 3
 232 701 203 636 191 498 c 0
 190 487 188 435 187 397 c 1
 287 397 l 2
 340 397 391 397 470 431 c 1
 490 415 l 1
 484 401 477 374 475 363 c 0
 465 319 461 213 461 196 c 3
 461 157 465 91 471 54 c 0
 473 39 492 35 503 33 c 0x3e
 519 29 538 28 552 27 c 1
 547 -7 l 1
 508 -1 464 4 422 4 c 3
 392 4 357 -3 327 -7 c 1
 325 26 l 1
 336 27 351 29 362 31 c 0
 385 37 392 48 394 76 c 0
 396 101 396 160 396 186 c 3
 396 206 396 253 391 316 c 0
 390 332 372 351 338 355 c 0x9e
EndSplineSet
Validated: 1
EndChar

StartChar: uni0237
Encoding: 567 567 52
Width: 276
VWidth: 1159
Flags: W
HStem: 379.109 64<23.555 72.4976>
VStem: -40.5947 69<-296.213 -228.144> 25.4144 49.21<387.545 403.893> 82.5587 85.3613<-67.1846 391.797>
LayerCount: 2
Fore
SplineSet
-40.5947 -294.995 m 1xd0
 -36.3621 -225.029 -21.9355 -187.837 17.7178 -146.151 c 0
 37.7664 -125.268 63.5958 -82.9237 68.3584 -67.6436 c 0
 71.7809 -58.7751 82.5587 9.21299 82.5587 140.431 c 1
 82.7915 277.976 77.212 341.224 74.4058 403.504 c 0
 75.3178 412.206 69.4054 394.309 74.6244 388.839 c 1
 67.0976 387.652 38.8354 381.201 25.4144 379.109 c 1xb0
 8.4144 443.109 l 1
 68.4125 454.446 100.497 470.402 153.098 525.396 c 1
 202.096 483.923 l 1
 197.707 466.582 188.493 440.593 184.646 421.062 c 0
 177.678 382.156 169.671 268.495 170.164 251.258 c 0
 170.71 155.234 169.012 34.3631 167.92 -11.7031 c 0
 167.851 -73.1467 153.623 -116.086 134.874 -145.06 c 0
 111.14 -181.287 77.3143 -203.53 51.2891 -225.707 c 0
 38.1206 -238.41 27.7568 -274.417 28.4053 -307 c 1
 -40.5947 -294.995 l 1xd0
EndSplineSet
Validated: 33
EndChar

StartChar: U
Encoding: 85 85 53
Width: 821
VWidth: 1159
Flags: W
HStem: -17 87.9941<315.426 543.033> 614 76<35.0913 122.597 232.027 307>
VStem: 118.828 99.2637<154.783 496.353> 631.638 91.1963<163.18 610.768>
LayerCount: 2
Fore
SplineSet
35.828125 690 m 1
 98.685546875 681 230.3515625 680 307 689 c 1
 316 617 l 1
 249.830078125 611 228.58304811 620.399652805 228.162109375 607.66796875 c 0
 227.622070312 591.333984375 218.637695312 299.583984375 218.091796875 258 c 1
 217.565429688 208.99609375 226.142145455 167.12713382 250.637695312 137 c 0
 284.432617188 95.435546875 348.794921875 70.994140625 458.610351562 70.994140625 c 1
 476.846679688 70.994140625 542.70694683 76.1760663654 586.545898438 127 c 0
 612.422851562 157 626.112327732 193.425667912 631.637695312 253 c 0
 639.977539062 342.919921875 634.519897203 510.353147509 634.276367188 604.288085938 c 0
 634.241210938 617.848632812 613.189453125 613 553.828125 614 c 1
 555.828125 690 l 1
 616.428710938 680 751.254882812 673 788 691 c 1
 794 611 l 1
 745.983398438 612.592965048 720.680207042 609.125627948 720.736328125 607.564453125 c 4
 721.243164062 593.465304171 726.990952241 472.009596142 722.833984375 253 c 0
 721.373046875 174.293945312 692.671809458 114.779271485 650.922851562 68.400390625 c 0
 598.712890625 10.400390625 518.610351562 -17 424.831054688 -17 c 1
 308.223632812 -17 227.344173669 15.3796527922 177.629882812 70 c 0
 138.4921875 113 122.71737983 169.142221872 118.828125 237 c 0
 116.698242188 274.161132812 115.749911021 586.061088829 124.466796875 600.931640625 c 0
 129.737304688 609.922851562 125.041015625 609.372070312 27.828125 614 c 1
 35.828125 690 l 1
EndSplineSet
Validated: 33
EndChar

StartChar: V
Encoding: 86 86 54
Width: 819
VWidth: 1159
Flags: W
HStem: 595.914 79.0859<218.438 273.994> 600 85<552.414 617.094 703.501 796.494>
VStem: 376.011 70.9971<-24.5918 53.6779>
LayerCount: 2
Fore
SplineSet
275.994140625 675 m 1xa0
 273.994140625 597 l 1
 253.641601562 596.721679688 223.486001363 597.236625454 218.478515625 595.9140625 c 0xa0
 212.477539062 594.329101562 212.803710938 590.873046875 215.59375 583 c 1
 218.498046875 573.591372642 426.140625 152.530553682 429.411132812 138.204101562 c 1
 436.498046875 155.546103117 610.497070312 573.975975383 616.212890625 583 c 1
 623.24609375 589.079848986 623.944386649 591.791927931 617.765625 593.196289062 c 0
 603.765625 596.378327303 568.40625 596.557850909 550.4140625 600 c 1
 552.4140625 685 l 1x60
 622.291992188 667 747.328125 667 796 688 c 1
 806 604 l 1
 732 587 708 589 702 577 c 1
 682.19603119 542.950943504 530.49663904 214.381888598 469.137695312 62 c 0
 457.471679688 32.1279296875 452.890625 5.4765625 447.0078125 -24.591796875 c 1
 376.010742188 -25.591796875 l 1
 372.989257812 11.466796875 369.0739058 14.9068635797 352.690429688 58 c 0
 310.406046999 165.881103647 201 391.673545966 98 575 c 0
 81.2584068537 605.720010725 82 593 13.822265625 606 c 1
 25.822265625 680 l 1
 136.206054688 658 170.436523438 669 275.994140625 675 c 1xa0
EndSplineSet
Validated: 33
EndChar

StartChar: W
Encoding: 87 87 55
Width: 1093
VWidth: 1159
Flags: W
HStem: -28 24G<344.346 414.949 699.994 771.987> 605 75<809.591 896.847> 617 68<1016.73 1072.81>
VStem: 700.984 71.0029<-22 43.9904>
LayerCount: 2
Fore
SplineSet
1071.57519531 685 m 1xb0
 1083.57519531 617 l 1xb0
 1008.04492188 588.426757812 1008.24511719 614.346679688 968.8671875 527.23828125 c 1
 870.612304688 274.22265625 848.151367188 185.51953125 793.186523438 44 c 0
 778.668945312 11.98046875 776.209960938 9 771.987304688 -22 c 1
 700.984375 -25 l 1
 699.00390625 12 699.46875 15.57421875 683.184570312 64 c 0
 644.971679688 170.549804688 593.944335938 281.2890625 556.58984375 387 c 1
 489.684570312 214.6328125 417.415039062 19.4580078125 425.875976562 30 c 0
 417.216796875 2.7470703125 416.11328125 -3 413.784179688 -28 c 1
 348.784179688 -28 l 1
 339.908203125 15.6904296875 335.1015625 21.982421875 304.37109375 104.599609375 c 0
 212.998046875 339.62109375 122.893554688 534.163085938 119.545898438 542 c 0
 115.586914062 552.147460938 99.9853515625 576 85.890625 585.620117188 c 0
 57.9736328125 604.673828125 42.5986328125 605.193359375 10 609 c 1
 24 689 l 1
 83.4267578125 658 227.499023438 661 288.569335938 686 c 1
 303.569335938 606 l 1
 246.8984375 594.435546875 225.009765625 608.606445312 225.009765625 581.799804688 c 1
 225.009765625 575.528320312 224.901367188 570.178710938 228.290039062 559.400390625 c 1
 229.033203125 549.750976562 383.215820312 142.0234375 389.985351562 121 c 1
 397.08984375 142.262695312 514.537109375 446.942382812 517.985351562 461 c 1
 481.319335938 558.650390625 456.705078125 594.1640625 450.916992188 601.557617188 c 0
 442.918945312 611.303710938 409.487304688 611.694335938 377.400390625 615 c 1
 390.400390625 683 l 1
 446.51953125 668 559.991210938 666 626.96875 686 c 1
 635.96875 610 l 1
 622.041015625 607.916992188 590.078125 607.504882812 577.008789062 603.21875 c 0
 575.545898438 602.840820312 575.021484375 597.884765625 573.96875 587 c 1
 574 584 753.846679688 152.986328125 760.788085938 134.5 c 1
 801.329101562 276.833007812 855.10546875 434.989257812 896.846679688 553.599609375 c 0
 914.427734375 599.3359375 872.584960938 599.099609375 806.590820312 605 c 1
 809.590820312 680 l 1xd0
 867.842773438 668 975.5390625 669 1071.57519531 685 c 1xb0
EndSplineSet
Validated: 524321
EndChar

StartChar: X
Encoding: 88 88 56
Width: 778
VWidth: 1159
Flags: W
HStem: -16 65<53.6309 124.243> -14 71<239.593 296.406 473.562 541.767> 605 70<611.32 695.006> 614 60<51.835 132.945>
LayerCount: 2
Fore
SplineSet
51.8349609375 674 m 1x90
 176.834960938 668 198 666 301 683 c 1
 304 611 l 1
 289 606 272.523249801 601.988703922 254 600 c 0
 256 588 l 1
 257.552910371 588.479756733 394.335412435 406.590516953 396.825195312 404.642578125 c 1
 407.084117086 422.269870189 485.864673991 545.99353845 506.583007812 581.024414062 c 0
 509.53125 586.033203125 512.041015625 592.024414062 508.361328125 592.095703125 c 1
 492.01171875 593.559570312 455.877929688 595.413085938 439.630859375 605 c 1
 449.630859375 672 l 1
 533.630859375 660 605.40625 663 694.40625 675 c 1
 700.40625 605 l 1
 630 594 614 598 584.40625 558 c 0
 578.132398254 549.4626094 561.793511346 520.322714292 434.715820312 357.516601562 c 1
 454.537907998 331.301164218 618.104189976 125.404812607 633.78515625 104.680664062 c 1
 660.551757812 76.052734375 679.411132812 71.634765625 746 63 c 1
 732 -10 l 1
 657 8 544.834960938 3 473.834960938 -18 c 1
 467.834960938 52 l 1
 485.536132812 59.51171875 520.482421875 65.9404296875 532.189453125 68.0859375 c 0
 547.214017689 70.8394383631 546.786061536 75.5373594695 542.201171875 82.5224609375 c 0
 458.079263423 202.137667621 389.038869657 281.08509987 381.80859375 292.84765625 c 1
 332.166786681 225.189663641 267.157335772 115.634149465 238 68 c 1
 238 68 244.600704545 61.5485042476 247.946289062 61.4482421875 c 0
 260.681456847 61.0665886525 284.479434244 61.9941491856 298.40625 57 c 1
 296.40625 -14 l 1x60
 203.40625 -5 144.630859375 -2 53.630859375 -16 c 1
 50.630859375 49 l 1
 102 58 124 64 151.149414062 90.07421875 c 0
 157.338141011 96.0167039665 187.624364255 147.591110941 339.8984375 338.6640625 c 1
 156.32813694 568.110582532 141.811671845 586.544696789 129.478515625 597.477539062 c 0
 110.060546875 614.186523438 80.59375 607.612304688 50.8349609375 614 c 1
 51.8349609375 674 l 1x90
EndSplineSet
Validated: 33
EndChar

StartChar: Y
Encoding: 89 89 57
Width: 730
VWidth: 1159
Flags: W
HStem: -28 21G<247.753 300.929> -21 75<443.27 532> 604 79<468.429 511.66 603.295 709>
VStem: 342.429 89.8037<68.6348 319.399>
LayerCount: 2
Fore
SplineSet
289 605 m 1xb0
 263.93204082 606.105714281 259.860761573 604.186751339 250 596 c 0
 244 586 l 1
 300.546395359 493.498593233 361.967995557 411.599300084 387.48828125 377.045898438 c 1
 417.537109375 429.090820312 511.524414062 594.599609375 511.5234375 589.184570312 c 1
 514.446289062 592.331054688 516.235284676 597.790237686 505.819335938 598.078125 c 0
 494.866210938 598.380859375 475.973632812 599.08984375 464.428710938 604 c 1
 468.428710938 683 l 1
 516.428710938 673 641 662 709 685 c 1
 709 601 l 1
 645.374023438 601.109375 618.122070312 596.259765625 603.291015625 584.061523438 c 1
 540.487304688 515.842773438 474.529296875 405.150390625 432.232421875 312.12109375 c 1
 431.636337902 263.511265581 427.501229287 216.324619676 438 82 c 0
 439.260727309 65.8698528686 488 58 541 54 c 1
 532 -21 l 1x70
 434 -4 349.428710938 4 252.428710938 -28 c 1
 234.428710938 49 l 1
 305.428710938 58.751953125 344.825195312 71.365234375 342.428710938 86.8896484375 c 1
 342.044921875 91.3232421875 339.336914062 286.877929688 340.428710938 291.0859375 c 1
 317.857421875 322.314453125 233.791015625 463.647460938 130.11328125 583.833984375 c 1
 124.499023438 591.931640625 77.3447265625 595 22.4296875 610 c 1
 28.4296875 683 l 1
 97.4296875 676 222 666 280 683 c 1
 289 605 l 1xb0
EndSplineSet
Validated: 33
EndChar

StartChar: Z
Encoding: 90 90 58
Width: 713
VWidth: 1159
Flags: W
HStem: -7 69.9941<208.977 587.734> 511.689 21G<25.026 102.621> 587.784 77.0322<129.625 518.646> 684.799 20G<83.478 121.168>
LayerCount: 2
Fore
SplineSet
24.0498046875 532 m 1
 52.8017578125 594.637695312 54.1103515625 693.754882812 112.845703125 704.798828125 c 1
 129.491210938 685.955078125 149.834960938 664.844726562 151.223632812 664.81640625 c 0
 202.067382812 663.764648438 541.122070312 658.450195312 637.838867188 663.380859375 c 0
 647.86328125 663.891601562 646.47265625 663.278320312 648.455078125 662.81640625 c 1
 675.455078125 622.908203125 l 1
 676.337890625 623.356445312 671.991210938 617.931640625 671.215820312 617.74609375 c 0
 664.67578125 616.180664062 218.169921875 65.0244140625 208.9765625 62.994140625 c 1
 310.353515625 62.5625 427.12109375 66.65234375 492.102539062 64.177734375 c 0
 592.49609375 60.3564453125 597.811523438 81.939453125 626 169.383789062 c 1
 692 139.383789062 l 1
 653.833984375 50.4326171875 639.389648438 4.2255859375 607.638671875 -41 c 1
 574.265625 -20.8466796875 575.724609375 -4.4111328125 487.184570312 -6.2705078125 c 0
 373.971679688 -8.646484375 121.100585938 1.4892578125 59.259765625 -7 c 1
 38.259765625 49 l 1
 80.7421875 70 112.551757812 100.572265625 143.622070312 134 c 1
 265.079101562 276.884765625 394.202148438 442.290039062 515.645507812 589.005859375 c 1
 515.703125 588.962890625 518.645507812 593.005859375 518.645507812 593.005859375 c 1
 493.012695312 588.091796875 153.8671875 588.381835938 140.768554688 587.784179688 c 1
 122.233398438 594.005859375 117.349609375 582.40234375 87.892578125 511.689453125 c 1
 24.0498046875 532 l 1
EndSplineSet
Validated: 33
EndChar

StartChar: zero
Encoding: 48 48 61
Width: 581
VWidth: 1159
Flags: W
HStem: -13.4219 87.249<228.575 366.287> 418.907 81.6338<217.707 351.424>
VStem: 64 86.7266<157.055 343.125> 434.712 82.0205<153.339 331.303>
LayerCount: 2
Fore
SplineSet
282.92578125 418.907226562 m 3
 182.030273438 418.907226562 150.7265625 306.750976562 150.7265625 252.083007812 c 3
 150.7265625 169.811523438 196.29296875 73.8271484375 304.819335938 73.8271484375 c 3
 373.2578125 73.8271484375 434.711914062 150.05859375 434.711914062 242.65625 c 3
 434.711914062 357.088867188 347.16015625 418.907226562 282.92578125 418.907226562 c 3
284.240234375 500.541015625 m 3
 454.91796875 500.541015625 516.732421875 355.541992188 516.732421875 246.473632812 c 3
 516.732421875 138.342773438 447.138671875 -13.421875 296.947265625 -13.421875 c 3
 140.174804688 -13.421875 64 110.041015625 64 255.548828125 c 3
 64 326.047851562 112.456054688 500.541015625 284.240234375 500.541015625 c 3
EndSplineSet
Validated: 1
EndChar

StartChar: one
Encoding: 49 49 62
Width: 498
VWidth: 1159
Flags: W
HStem: -4 64.5391<117.067 200.618 312.867 388.229> 424.408 66.1982<123.738 205.148> 431.612 74.3877<307.389 390.608>
VStem: 214.045 85.6133<81.4774 414.079>
LayerCount: 2
Fore
SplineSet
123.73828125 490.606445312 m 1xd0
 197.643554688 485.870117188 349.041992188 494.546875 390.608398438 506 c 9
 390.608398438 431.612304688 l 1xb0
 305.97265625 430.807617188 303.416992188 412.553710938 302.436523438 400.99609375 c 0
 298.805664062 360.347850624 299.658203125 293.164598208 299.658203125 227.90625 c 3
 299.658203125 154.280325487 305.543945312 102.88444822 312.865234375 81.650390625 c 0
 317.11328125 69.5830078125 339.405273438 63.33203125 392.265625 61.72265625 c 9
 388.229492188 -4 l 1
 316.85546875 -4 228.885742188 -4 117.067382812 -4 c 9
 109 60.5390625 l 1
 141.717773438 61.8525390625 198.814453125 76.10546875 200.749023438 80.466796875 c 0
 210.069335938 101.920912639 214.044921875 129.790283811 214.044921875 227.90625 c 3
 214.044921875 324.799092848 213.098632812 345.46107687 208.364257812 396.348632812 c 0
 206.702148438 414.427734375 191.159179688 418.23828125 121.825195312 424.408203125 c 9
 123.73828125 490.606445312 l 1xd0
EndSplineSet
Validated: 33
EndChar

StartChar: two
Encoding: 50 50 63
Width: 641
VWidth: 1159
Flags: W
HStem: -15.9141 16.1631G<109.801 132.596 503.666 517.831> -7.85547 78.083<216.255 450.354> 418.881 93.5332<218.042 340.366>
VStem: 362.107 97.2783<277.812 395.98>
LayerCount: 2
Fore
SplineSet
93.58984375 379.951171875 m 1xb0
 131.21484375 424.568359375 203.202148438 512.4140625 302.399414062 512.4140625 c 3
 411.184570312 512.4140625 459.385742188 419.437056185 459.385742188 350.921875 c 3
 459.385742188 210.59375 235.052734375 111.939453125 212.131835938 70.2275390625 c 1
 348.684570312 80.9765625 411.538977283 67.4890955198 424.6640625 75.162109375 c 0
 468.119867376 95.1664478593 491.33984375 135.935793102 510.38671875 160.362304688 c 5
 573 112.78125 l 5
 573 112.78125 526.444335938 76.155896037 509.217773438 -20.7509765625 c 1
 498.11328125 -10.5771211574 372.15625 -7.85546875 351.288085938 -7.85546875 c 3x70
 273.163085938 -7.85546875 147.037109375 -4.6318359375 118.154296875 -15.9140625 c 1
 89.4755859375 52.751953125 l 1
 155.942382812 123.8671875 362.107421875 234.311523438 362.107421875 337.764648438 c 3
 362.107421875 398.289480148 319.823242188 418.880859375 281.38671875 418.880859375 c 3
 240.340820312 418.880859375 177.5703125 378.758789062 134.314453125 332.618164062 c 1
 93.58984375 379.951171875 l 1xb0
EndSplineSet
Validated: 33
EndChar

StartChar: three
Encoding: 51 51 64
Width: 501
VWidth: 1159
Flags: W
HStem: 427.801 84.6104<178.866 280.879>
VStem: 299.92 93.7227<286.271 409.649> 336.723 93.2773<-36.2748 101.9>
LayerCount: 2
Fore
SplineSet
92.4375 -199.731445312 m 1xa0
 271.3203125 -123.975585938 336.72265625 -51.7060546875 336.72265625 31.115234375 c 3xa0
 336.72265625 108.443042404 283.651367188 132.452213967 245.37109375 158.821289062 c 1
 226.745117188 146.751953125 173.400390625 119.681640625 137.639648438 109.295898438 c 1
 104.33203125 156.196289062 l 1
 203.877929688 217.633789062 299.919921875 261.775390625 299.919921875 355.2578125 c 3
 299.919921875 394.251953125 271.116210938 427.80078125 237.1875 427.80078125 c 3
 178.541015625 427.80078125 144.620117188 389.916015625 116.228515625 365.142578125 c 1
 76.8154296875 404.630859375 l 1
 104.171875 446.951171875 185.189453125 512.411132812 257.633789062 512.411132812 c 3
 341.990234375 512.411132812 393.642578125 451.6953125 393.642578125 384.885742188 c 3xc0
 393.642578125 284.01953125 345.375 243.595703125 319.423828125 216.133789062 c 1
 361.661132812 189.723530902 430 141.626304656 430 43.705078125 c 3
 430 -104.861328125 221.908203125 -219.30859375 120.314453125 -255.7890625 c 1
 92.4375 -199.731445312 l 1xa0
EndSplineSet
Validated: 1
EndChar

StartChar: four
Encoding: 52 52 65
Width: 658
VWidth: 1159
Flags: W
HStem: -16.4473 21G<559.331 582.614> -6.51562 76.5898<179.527 372.984 457.32 535.096>
VStem: 374.174 83.1465<-177.633 -6.51562 72.7383 330.007>
LayerCount: 2
Fore
SplineSet
372.984375 70.07421875 m 1x60
 372.984375 175.196943992 373.665039062 260.076076639 368.7734375 331.138671875 c 1
 368.7734375 331.138671875 250.512695312 171.707567889 174.19921875 68.376953125 c 1
 237.745117188 70.07421875 322.002929688 70.07421875 372.984375 70.07421875 c 1x60
480.9453125 476.982421875 m 1
 458.20703125 428.775390625 455.149414062 349.85546875 455.149414062 213.135742188 c 0
 455.149414062 141.361946809 456.3671875 155.947058466 457.3203125 72.73828125 c 1
 532.689453125 71.931640625 516.188476562 77.7685546875 563.940429688 116.514648438 c 1
 563.940429688 116.514648438 607.947265625 98.9267578125 611.416992188 96.9677734375 c 1
 611.416992188 96.9677734375 589.264648438 28.880859375 575.963867188 -16.447265625 c 1xa0
 542.697265625 -8.208984375 492.798828125 -5.5849609375 457.3203125 -5.408203125 c 1
 456.559570312 -86.861328125 466.385742188 -157.900390625 482.068359375 -185.20703125 c 1
 430.65234375 -191.805664062 438.461914062 -240.825195312 404.919921875 -263.477539062 c 1
 404.919921875 -263.477539062 335.498046875 -221.0859375 333.014648438 -216.323242188 c 1
 370.342773438 -159.717773438 373.903320312 -93.0869140625 374.173828125 -6.515625 c 1
 61.7646484375 -6.515625 138.059570312 3.1279296875 90.51953125 -44.0849609375 c 1
 90.51953125 -44.0849609375 27.833984375 -3.111328125 24 0.5 c 1
 44.1318359375 20.8950347883 388.07421875 445.522493111 416.434570312 514.994140625 c 1
 480.9453125 476.982421875 l 1
EndSplineSet
Validated: 33
EndChar

StartChar: five
Encoding: 53 53 66
Width: 502
VWidth: 1159
Flags: W
HStem: 403.137 90.5205<181.855 365.012>
VStem: 103.354 79.0049<269.978 403.137> 316.053 83.2402<-23.0765 126.572>
LayerCount: 2
Fore
SplineSet
106.669921875 493.657226562 m 1
 268.620117188 485.72265625 297.6328125 491.5390625 329.002929688 492.044921875 c 0
 360.764648438 494.34765625 386.043945312 543.966796875 395.139648438 566.3828125 c 9
 395.139648438 566.3828125 443.075195312 533.916992188 446 532.39453125 c 1
 415.69140625 477.022460938 383.484375 405.017578125 362.73046875 403.48828125 c 0
 276.205078125 403.884765625 288.358398438 402.862304688 181.85546875 403.13671875 c 9
 181.85546875 403.13671875 182.665039062 284.519245574 182.359375 269.977539062 c 1
 322.63671875 278.588867188 399.29296875 192.900390625 399.29296875 72.8251953125 c 3
 399.29296875 -86.5257529371 234.345703125 -202.998610123 76.095703125 -223 c 9
 76.095703125 -223 76.5 -157.693359375 73.716796875 -154.139648438 c 1
 136.486328125 -145.743490593 316.052734375 -95.285270865 316.052734375 62.0888671875 c 3
 316.052734375 101.337890625 291.155273438 196.240234375 103.354492188 187.228515625 c 1
 110.163085938 275.935822192 111.150390625 392.659953046 106.669921875 493.657226562 c 1
EndSplineSet
Validated: 33
EndChar

StartChar: six
Encoding: 54 54 67
Width: 611
VWidth: 1159
Flags: W
HStem: -21 79.7197<261.853 390.49> 342.83 83.1699<276.257 396.749> 674 20G<282.166 394.708>
VStem: 89.6064 90.3936<163.722 394.149> 451 86<120.343 285.047>
LayerCount: 2
Fore
SplineSet
386.939453125 694 m 1
 386.939453125 694 407.953125 633.413085938 412.59375 627.953125 c 1
 229.965153014 516.372034889 180 430.720279086 180 263 c 3
 180 195.038922936 222.47368683 58.7197265625 326.362304688 58.7197265625 c 3
 377.194194491 58.7197265625 451 109.301375913 451 190 c 3
 451 308.054365418 382.481907417 342.830078125 329.645507812 342.830078125 c 3
 302.837552049 342.830078125 290.055765037 328.232017419 278.012695312 321.000976562 c 1
 243.946289062 377 l 1
 265.042546198 401.5 296.573536817 426 346.762695312 426 c 3
 460.914560975 426 537 320.917670356 537 199 c 3
 537 80.751953125 438.429015959 -21 312.1484375 -21 c 3
 142.210564174 -21 89.6064453125 148.568996429 89.6064453125 246 c 3
 89.6064453125 433.805664062 177.391601562 580 386.939453125 694 c 1
EndSplineSet
Validated: 1
EndChar

StartChar: seven
Encoding: 55 55 68
Width: 590
VWidth: 1159
Flags: W
HStem: 413.884 81.8125<163.137 425.235>
LayerCount: 2
Fore
SplineSet
191 502 m 1
 191 502 206.399161802 495.941401149 217.573242188 495.696289062 c 0
 334.457948989 493.132332709 496.011745584 494.846679688 517.724609375 496.546875 c 1
 517.724609375 496.546875 537.288085938 440.6796875 541 436.831054688 c 1
 516.33296053 397.615758339 229.70901508 -124.590277914 218.604492188 -160.522460938 c 1
 112.122070312 -160.5390625 l 1
 208.718950769 25.6634461553 308.486224754 184.951446055 425.08203125 395.889648438 c 0
 428.479492188 402.036132812 423.532685276 409.363341057 413.186523438 410.110351562 c 0
 349.995493273 414.672851563 340.339590402 414.502522702 298.708984375 413.883789062 c 0
 171.9609375 412 147.364257812 408.563476562 119.37890625 336.263671875 c 1
 119.37890625 336.263671875 68.59375 363.155273438 64.3857421875 364.282226562 c 1
 64.3857421875 364.282226562 122.0546875 489.130859375 131.55859375 535.083984375 c 1
 191 502 l 1
EndSplineSet
Validated: 33
EndChar

StartChar: eight
Encoding: 56 56 69
Width: 584
VWidth: 1159
UnlinkRmOvrlpSave: 1
Flags: W
HStem: -21.7998 70.5498<226.017 375.877> 586.925 67.9854<232.114 346.944>
VStem: 89 79.6387<102.936 220.603> 126.225 87.8672<455.563 569.254> 374.303 76.3389<449.748 559.042> 415.386 85.2178<85.7606 218.603>
LayerCount: 2
Fore
SplineSet
281.938476562 586.924804688 m 3xe8
 246.996611975 586.924804688 214.091796875 563.477502551 214.091796875 514.728515625 c 3
 214.091796875 375.466796875 500.603515625 356.088867188 500.603515625 166.919921875 c 3xd4
 500.603515625 81.7587890625 451.829472223 -21.7998046875 289.921875 -21.7998046875 c 3
 170.218283981 -21.7998046875 89 52.330078125 89 162.030273438 c 3
 89 311.882527824 374.302734375 389.640014696 374.302734375 500 c 3
 374.302734375 561.941713997 328.875844675 586.924804688 281.938476562 586.924804688 c 3xe8
288.522460938 654.91015625 m 3
 312.84765625 654.91015625 355.095028594 647.614179103 369.268554688 638.204101562 c 0
 405.471466219 617.122070312 450.641601562 574.56640625 450.641601562 508 c 3
 450.641601562 358.809752724 168.638671875 285.746383945 168.638671875 167.26953125 c 3xe8
 168.638671875 143.343648859 184.581837282 48.75 310.884765625 48.75 c 3
 371.510234764 48.75 415.385742188 90.4819142957 415.385742188 150.728515625 c 3
 415.385742188 230.765625 351.416883555 263.475378408 288.405273438 305.728515625 c 0
 229.678124238 345.993772014 126.224609375 414.029376567 126.224609375 482.950195312 c 3
 126.224609375 614.41176882 232.335905406 654.91015625 288.522460938 654.91015625 c 3
EndSplineSet
EndChar

StartChar: uniFB00
Encoding: 64256 64256 71
Width: 642
VWidth: 1159
Flags: W
HStem: -6 39<34 100.133 318.611 384.133 475.174 568.568> 1 32<191.619 269.028 475.619 566.018> 360 37<39 113 187 399 471 624> 669 55<273.933 387.321> 701 55<557.254 661.117>
VStem: 114 71<42.7113 360 397 588.557> 400 69<44.5312 360 397 610.446>
LayerCount: 2
Fore
SplineSet
399 397 m 1x36
 399 436 397 481 397 493 c 3
 397 551 409 593 431 627 c 1
 393 645 346 669 309 669 c 3
 206 669 189 602 189 491 c 3
 189 480 188 435 187 397 c 1
 209 398 245 399 282 399 c 3
 332 399 385 398 399 397 c 1x36
483 685 m 1
 490 691 499 698 508 704 c 0
 547 731 584 756 643 756 c 3
 675 756 725 745 750 723 c 1
 749 696 750 696 701 659 c 1
 662 677 631 701 593 701 c 3
 490 701 475 609 475 498 c 3
 475 487 472 435 471 397 c 1
 523 399 572 399 624 401 c 1
 624 355 l 1
 572 357 522 358 470 360 c 1
 469 330 469 305 469 293 c 3
 469 211 470 134 475 54 c 0
 476 39 482 34 498 33 c 0
 523 32 546 32 571 31 c 1
 568 -6 l 1xae
 526 -1 466 1 424 1 c 3x66
 394 1 349 -2 319 -6 c 1
 317 30 l 1
 328 31 342 31 353 33 c 0xa6
 384 40 388 53 390 81 c 0
 395 133 400 201 400 266 c 3
 400 286 399 323 399 360 c 1
 385 359 332 359 282 359 c 3
 245 359 208 359 186 360 c 1
 185 330 185 305 185 293 c 3
 185 211 186 134 191 54 c 0
 192 39 198 34 214 33 c 0
 239 32 248 32 273 31 c 1
 271 -7 l 1
 229 -2 182 1 140 1 c 3x66
 110 1 64 -2 34 -6 c 1
 33 30 l 1
 44 31 58 31 69 33 c 0xa6
 100 40 104 53 106 81 c 0
 111 133 114 201 114 266 c 3
 114 286 113 323 113 360 c 1
 88 359 64 356 39 355 c 1
 39 401 l 1
 64 400 88 398 113 397 c 1
 113 436 113 474 113 486 c 3
 113 594 156 625 224 672 c 0
 263 699 304 724 363 724 c 3
 394 724 457 706 483 685 c 1
EndSplineSet
Validated: 1
EndChar

StartChar: paragraph
Encoding: 182 182 72
Width: 605
VWidth: 1159
UnlinkRmOvrlpSave: 1
Flags: W
HStem: 686 55<384.014 530>
VStem: 290 38<57 490.2> 298 40<235.8 673>
LayerCount: 2
Fore
SplineSet
298 673 m 25xa0
 338 681 l 25xa0
 328 45 l 25
 290 57 l 25xc0
 298 673 l 25xa0
530 741 m 1
 532 686 l 1
 490 683 342 681 274 638 c 0
 223.677265889 606.178271077 206 581.006849235 206 289 c 3
 206 149 231.183524335 116.392422813 262 89 c 0
 280.613636364 72.619047619 375.75 53.1666666667 444 46 c 1
 434 -8 l 1
 236.281690141 35.3043478261 198.544797859 69.7754876614 144 131 c 0
 86 197 57.718337988 279.143475457 41 343 c 0
 35.5443009018 363.838314408 32.1187943776 378.508865382 40 399 c 0
 70 477 121.142297883 586.795128918 222 657 c 0
 324 728 530 741 530 741 c 1
EndSplineSet
EndChar

StartChar: ampersand
Encoding: 38 38 74
Width: 676
VWidth: 1159
Flags: W
HStem: -11 77<162.409 299.744 510.113 592.181> 437 54<564.898 647>
VStem: 17 89<125.888 275.516> 81 71<474.768 559.904> 265 86<461.501 548.461>
LayerCount: 2
Fore
SplineSet
210 350 m 1xe8
 144.654867256 322.083333334 106 269.041666666 106 216 c 3
 106 123.352941177 156.039215687 66 238 66 c 3
 302.166666667 66 339.75 128.22 370 168 c 1
 309.130434782 301.523364486 243.04347826 336.392523364 210 350 c 1xe8
197 568 m 3
 179.115384615 568 152 551.797101449 152 525 c 3xd8
 152 479.945454546 191.849056604 460.090909091 218 441 c 1
 249.578125 462.38961039 265 482.194805195 265 502 c 3
 265 534.352941177 236.913043479 568 197 568 c 3
647 437 m 1
 599.578313253 437 561.581626748 424.856941954 551 396 c 0
 522.894736842 319.354700855 498.692982456 257.136752137 462 185 c 1
 492.837606838 91.8714285714 525.179487179 62 550 62 c 3
 583.592105263 62 606.289473684 104.875 619 132 c 1
 672 108 l 1
 640 34.7256637168 616 -12 530 -12 c 3
 477 -12 433 33.1327433628 406 90 c 1
 374 64.5378151261 332 -11 199 -11 c 3
 80 -11 17 85 17 172 c 3xe8
 17 278.951456311 76.3223684211 353.398058252 144 388 c 1
 109.636363636 411.96875 81 452.53125 81 506 c 3
 81 593 156 626 231 653 c 1
 316 623 351 575 351 498 c 3
 351 482.96969697 317.428571429 433.181818182 286 405 c 1
 333.5 386.775956284 396 324.972677596 426 260 c 1
 450.81632653 304.405286344 480.921304553 378.043158633 490 420 c 0
 496.888888889 451.836734694 450.962962963 471.428571429 428 480 c 1
 445 532 l 1
 498.709090909 509.379310345 592.060606061 489.586206897 656 491 c 1
 647 437 l 1
EndSplineSet
Validated: 33
EndChar

StartChar: quotesingle
Encoding: 39 39 75
Width: 200
VWidth: 1159
Flags: W
HStem: 445.7 254<72 127>
VStem: 49 101<471.428 699.7> 72 55<445.7 665.664>
LayerCount: 2
Fore
SplineSet
49 699.700195312 m 9xc0
 150 699.700195312 l 17xc0
 149.150642857 630.734195312 129.189928571 537.034195312 127 445.700195312 c 9
 72 445.700195312 l 17xa0
 69.7087071429 536.911195312 49.9770071429 630.890195312 49 699.700195312 c 9xc0
EndSplineSet
Validated: 1
EndChar

StartChar: parenleft
Encoding: 40 40 76
Width: 383
VWidth: 1515
Flags: W
VStem: 37 75<47.7879 377.42>
LayerCount: 2
Fore
SplineSet
337 724 m 1
 363 675 l 1
 193.743295019 585.711578947 112 419.751578947 112 214 c 7
 112 8.22222222222 182.203065134 -143.199161426 363 -249 c 1
 339 -301 l 1
 145 -194 37 -18 37 214 c 3
 37 445 149 627 337 724 c 1
EndSplineSet
Validated: 1
EndChar

StartChar: parenright
Encoding: 41 41 77
Width: 380
VWidth: 1516
Flags: W
VStem: 269 75<47.9705 377.243>
LayerCount: 2
Fore
SplineSet
46 724 m 17
 234 627 344 445 344 214 c 27
 344 -18 237 -194 43 -301 c 1
 20 -248 l 17
 200.741312741 -142.427672956 269 8.66666666667 269 214 c 27
 269 419.305263158 189.204633205 584.905263158 20 674 c 1
 46 724 l 17
EndSplineSet
Validated: 1
EndChar

StartChar: question
Encoding: 63 63 80
Width: 396
VWidth: 1159
Flags: W
HStem: -29.2686 179.736<155.39 203.359> 680.8 20G<43.5 96.0603>
VStem: 90.8965 177.807<35.9465 82.7318> 154 53<200 259.016> 316 55<388.006 496.653>
LayerCount: 2
Fore
SplineSet
56 545.799804688 m 1xd8
 66.7142857143 689.648415798 -2 695 89 700.799804688 c 1
 103.120689655 655.799804688 107.827586207 655.799804688 128 655.799804688 c 3
 250.304062827 655.799804688 371 571.858545981 371 444.799804688 c 3
 371 290.281116163 263.964015066 282.90082522 251 276.799804688 c 0
 223.69 262.799840291 209.667 240.79989624 207 200 c 1
 207 200 168.133333333 198.799804688 154 198.799804688 c 1
 146 278.873458534 139.009425762 344.904859304 176 363.799804688 c 0
 202.548732394 374.381554688 316 350.108554686 316 435.799804688 c 3
 316 530.136168323 212.531016949 559.13253196 56 545.799804688 c 1xd8
EndSplineSet
Refer: 48 46 N 1 0 0 1 70 0 2
Validated: 33
EndChar

StartChar: at
Encoding: 64 64 81
Width: 802
VWidth: 1159
Flags: W
HStem: -199 76<299.791 516.311> -9.90039 71.5605<451.634 572.156> 6.5 79.5<296.095 363.337> 517 68<316.06 537.878>
VStem: 19 93<53.5135 284.709> 192.851 94.0984<94.1562 208.063> 680 80<187.713 383.913>
LayerCount: 2
Fore
SplineSet
564.754882812 350 m 1xbe
 539.5549375 288.690243902 527.35046173 216.376017142 510.755 150.5 c 0
 504.560163654 125.909473267 499 98.290052866 499 88 c 3
 499 69.4551691974 504.057087054 61.66015625 512.615234375 61.66015625 c 3
 532.967970918 61.66015625 569.294194134 76.5757658148 606 109 c 0
 645.957391983 149.543319534 680 209.88337469 680 285 c 3
 680 435.003 560.491030928 517 422 517 c 3
 251.738386076 517 112 367.01 112 157 c 3
 112 -11.0901038062 257.125016502 -123 410 -123 c 3
 519.966131147 -123 613.387901639 -65.9007933885 680 13 c 1
 699.5 -2.21 710.5 -10.79 730 -26 c 1
 658.216216216 -114.717948718 535.261561562 -199 398 -199 c 3
 206.765628809 -199 19 -61.8205677419 19 157 c 3
 19 393.061069307 208.697222222 585 442 585 c 3
 602.303 585 760 470.811659341 760 288 c 3
 760 180.430417978 684.399843372 89.0074832292 638 50 c 0
 603.194726355 20.7398553669 542.30762704 -9.900390625 482.35546875 -9.900390625 c 3xde
 420.911813681 -9.900390625 417.271370443 30.1172165675 421.655273438 71.2998046875 c 1
 383.319891748 34.6738179171 332.466834406 6.5 301.955 6.5 c 3
 237.219769493 6.5 192.850585938 50.7986757263 192.850585938 103.969726562 c 3
 192.850585938 214.448568075 269.374730499 320.454460209 342 351 c 0
 380.730511319 367.289707188 428.873622474 369.047388824 491.754882812 383.299804688 c 0
 503.918962805 386.056866581 516.824047671 400.269185637 521.455078125 409.400390625 c 1
 596.254882812 413.900390625 l 1
 585.462882812 392.317258687 575.357882812 371.20712964 564.754882812 350 c 1xbe
460.049804688 310.833007812 m 1
 454.962975543 312.6328125 441.228536855 314.432617188 436.650390625 314.432617188 c 3
 408.750313564 314.432617188 376.428876869 299.021928052 357.451171875 285.6328125 c 0
 322.629851156 261.065738298 286.949 211.370484647 286.949 145.586 c 3
 286.949 114.083486784 300.993770564 86 336 86 c 3xbe
 364.851485149 86 403.940594059 116.566112186 430 146 c 1
 437.33972886 174.398811586 448.336445087 206.343976524 454.955078125 237.799804688 c 0
 459.30905354 258.492582442 464 280.617424364 464 295 c 3
 464 302.422003662 462.856943483 308.027006428 460.049804688 310.833007812 c 1
EndSplineSet
Validated: 33
EndChar

StartChar: exclam
Encoding: 33 33 82
Width: 295
VWidth: 1159
Flags: W
HStem: -29.2686 179.736<123.39 171.359>
VStem: 58.8965 177.807<35.9465 82.7318> 88 152<519.484 654.482> 113 72<209 432.072>
LayerCount: 2
Fore
SplineSet
113 209 m 17x90
 113 339 111 437 104 533 c 0
 101.538461539 580 86.7692307692 604 88 654 c 1
 183.441860465 664 234.108527132 692 240 661 c 1xa0
 224 625 226 602 220 533 c 0
 206.724137931 408 185 342 185 208 c 9
 113 209 l 17x90
EndSplineSet
Refer: 48 46 N 1 0 0 1 38 0 2
Validated: 33
EndChar

StartChar: braceleft
Encoding: 123 123 83
Width: 266
VWidth: 1515
Flags: W
HStem: -229.7 61<189.598 249.5> 655.3 61<189.598 249.5>
VStem: 76.5 89.5<-143.809 38.4623 448.137 630.409> 99 96<-8.67272 166.558 320.042 495.272>
LayerCount: 2
Fore
SplineSet
249.5 716.299804688 m 5xe0
 249.5 716.299804688 249.5 679.089804687 249.5 655.299804688 c 5
 197.452610169 654.507654272 166 631.085630374 166 551 c 3xe0
 166 480.769 195 464.467 195 390 c 3
 195 334.826926544 142.872 266.260835257 104.5 243.299804688 c 1
 142.872 220.338836724 195 151.772932393 195 96.599609375 c 3xd0
 195 22.131809375 166 5.830489375 166 -64.400390625 c 3
 166 -144.486725499 197.452610169 -167.908042538 249.5 -168.700195312 c 5
 249.5 -229.700195312 l 5
 161.417283784 -233.096198887 76.5 -190.992154567 76.5 -39.7001953125 c 3xe0
 76.5 20.2272067041 99 52.5951077933 99 99.599609375 c 3
 99 142.943868054 71.291695122 200.271206183 11.5 220.299804688 c 1
 11.5 266.299804688 l 1
 71.291695122 286.327540998 99 343.655978064 99 387 c 3xd0
 99 434.003934096 76.5 466.371888713 76.5 526.299804688 c 3
 76.5 677.591804688 161.417283784 719.695804688 249.5 716.299804688 c 5xe0
EndSplineSet
Validated: 33
EndChar

StartChar: bar
Encoding: 124 124 84
Width: 158
VWidth: 1515
Flags: W
HStem: 684 20G<49 109>
VStem: 49 60<-223 704>
LayerCount: 2
Fore
SplineSet
49 704 m 17
 109 704 l 13
 109 -223 l 5
 49 -223 l 1
 49 704 l 17
EndSplineSet
Validated: 1
EndChar

StartChar: asciitilde
Encoding: 126 126 86
Width: 436
VWidth: 0
Flags: W
HStem: 216.053 96<192.254 332.677> 245.392 95.4463<100.538 245.288>
LayerCount: 2
Fore
SplineSet
29.1337890625 251.353515625 m 5x40
 59.2509765625 297.65234375 114.740234375 340.837890625 122.349609375 340.837890625 c 7x40
 165.387695312 340.837890625 256.5625 312.052734375 298.451171875 312.052734375 c 7
 308.852539062 312.052734375 337.98046875 333.76953125 353.108398438 357.82421875 c 5
 407 312.5390625 l 5
 381.651367188 268.853515625 334.803710938 216.052734375 322.063476562 216.052734375 c 7x80
 280.961914062 216.052734375 176.345703125 245.391601562 137.46484375 245.391601562 c 7
 124.653320312 245.391601562 94.7216796875 220.92578125 81.16796875 205.64453125 c 5
 29.1337890625 251.353515625 l 5x40
EndSplineSet
Validated: 1
EndChar

StartChar: bracketleft
Encoding: 91 91 87
Width: 246
VWidth: 1515
Flags: W
HStem: -230 63<143.4 219> 655 62<150.273 219>
VStem: 37 182<-230 -167 655 717> 37 74<-157 644>
LayerCount: 2
Fore
SplineSet
111 644 m 1xd0
 111 -157 l 1xd0
 219 -167 l 1
 219 -230 l 1
 37 -230 l 1
 37 717 l 1
 219 717 l 1
 219 655 l 1xe0
 111 644 l 1xd0
EndSplineSet
Validated: 1
EndChar

StartChar: underscore
Encoding: 95 95 91
Width: 463
VWidth: 0
Flags: W
HStem: -238 44<0 463>
LayerCount: 2
Fore
SplineSet
0 -238 m 25
 0 -194 l 25
 463 -194 l 25
 463 -238 l 25
 0 -238 l 25
EndSplineSet
Validated: 1
EndChar

StartChar: minus
Encoding: 8722 8722 92
Width: 463
VWidth: 0
Flags: W
HStem: 244 74<34.2002 427.8>
LayerCount: 2
Fore
SplineSet
34.2001953125 318 m 25
 427.799804688 318 l 9
 427.799804688 244 l 9
 34.2001953125 244 l 9
 34.2001953125 318 l 25
EndSplineSet
Validated: 1
EndChar

StartChar: greater
Encoding: 62 62 97
Width: 463
VWidth: 0
Flags: W
HStem: 472 20G<91.7143 135.282>
LayerCount: 2
Fore
SplineSet
56 422 m 1
 106 492 l 1
 412 283 l 1
 82 73 l 1
 44 136 l 1
 266 276 l 1
 56 422 l 1
EndSplineSet
Validated: 1
EndChar

StartChar: uni0335
Encoding: 821 821 98
Width: 0
VWidth: 1159
Flags: W
HStem: 508.5 38<-325.5 -27.5>
VStem: -325.5 298<508.5 546.5>
LayerCount: 2
Fore
SplineSet
-325.5 546.5 m 25
 -27.5 546.5 l 25
 -27.5 508.5 l 25
 -325.5 508.5 l 25
 -325.5 546.5 l 25
EndSplineSet
Validated: 1
EndChar

StartChar: asterisk
Encoding: 42 42 100
Width: 362
VWidth: 1159
Flags: W
VStem: 135 79<577.364 694.668>
LayerCount: 2
Fore
SplineSet
190.400390625 498 m 5
 163.176662071 453.6 170.506127451 433.866666667 137 387 c 1
 114 383 80 416 75 434 c 1
 103.970059009 481.218286379 119.629550366 481.218286379 148.599609375 522.200195312 c 5
 97.159213833 540 80.0124153191 509.486049107 26 540 c 1
 14 563 38 605 50 614 c 1
 104.136782266 600.75920286 109.375825711 586.047206038 157.400390625 570.599609375 c 5
 150.916067023 622.881529425 139.126387747 635.287408759 135 692 c 1
 150 708 198 703 214 691 c 1
 214.333333333 635.597014925 209.333333333 626.074626866 208 575 c 5
 255.655462185 598.076923077 261.949579832 614.230769231 315 635 c 1
 331 628 347 587 338 561 c 1
 288.285626175 533.951835938 275.028459821 548.119921875 227.799804688 528.799804688 c 5
 262.762044271 490.159895833 281.037760417 489.239898003 316 446 c 1
 314 426 275 402 252 402 c 1
 214.462738037 443.6 221.200195312 458.8 190.400390625 498 c 5
EndSplineSet
Validated: 33
EndChar

StartChar: uni0081
Encoding: 129 129 101
Width: 799
VWidth: 1361
Flags: W
HStem: -258.362 68.7676<730.94 1052.5> 643.914 72.0859<280.037 447.76>
VStem: 31.2129 111.953<233.004 471.115> 583.196 112.188<244.309 478.357>
LayerCount: 2
Fore
SplineSet
360.551757812 643.9140625 m 1
 239.416992188 643.9140625 143.166015625 508.216796875 143.166015625 340.061523438 c 1
 143.166015625 173.525390625 262.260742188 77 368.389648438 77 c 1
 489.130859375 77 583.196289062 195.616210938 583.196289062 336.7421875 c 1
 583.196289062 542.544921875 475.404296875 643.9140625 360.551757812 643.9140625 c 1
1217.79003906 -183.005859375 m 1
 1154.79003906 -212.385742188 1023.21972656 -258.362304688 859.21875 -258.362304688 c 1
 620.353515625 -258.362304688 447.759765625 -163.064453125 336.86328125 -2.6318359375 c 1
 152.263671875 22.8916015625 31.212890625 176.409179688 31.212890625 364 c 1
 31.212890625 562.748046875 172.389648438 716 353.389648438 716 c 1
 541.737304688 716 695.383789062 557.388671875 695.383789062 367 c 1
 695.383789062 213.043945312 597.365234375 58.2939453125 455.501953125 10 c 1
 560.275390625 -136.9296875 741.028320312 -189.594726562 892.047851562 -189.594726562 c 1
 1025.33007812 -189.594726562 1137.94042969 -153.157226562 1194.79003906 -125.005859375 c 1
 1217.79003906 -183.005859375 l 1
EndSplineSet
Validated: 1
EndChar
